<?xml version="1.0" standalone="no"?>
<!DOCTYPE svg PUBLIC "-//W3C//DTD SVG 20010904//EN"
 "http://www.w3.org/TR/2001/REC-SVG-20010904/DTD/svg10.dtd">
<svg version="1.0" xmlns="http://www.w3.org/2000/svg"
 width="804.000000pt" height="804.000000pt" viewBox="0 0 804.000000 804.000000"
 preserveAspectRatio="xMidYMid meet">
<metadata>
Created by potrace 1.14, written by Peter Selinger 2001-2017
</metadata>
<g transform="translate(0.000000,804.000000) scale(0.100000,-0.100000)"
fill="#000000" stroke="none">
<path d="M4145 8021 c6 -11 2 -13 -18 -9 -15 3 -24 1 -21 -4 3 -5 0 -9 -7 -7
-34 4 -60 -2 -53 -12 4 -7 1 -10 -7 -7 -15 6 -69 -21 -69 -34 0 -4 -5 -8 -11
-8 -6 0 -17 -7 -25 -15 -9 -8 -12 -15 -8 -15 4 0 0 -6 -9 -12 -24 -19 -64 -99
-62 -125 1 -13 -3 -23 -8 -23 -6 0 -8 -3 -4 -6 13 -13 -20 -29 -63 -31 -66 -2
-144 -15 -151 -25 -3 -5 -15 -10 -27 -11 -12 0 -24 -7 -26 -14 -3 -7 -12 -13
-19 -13 -8 0 -22 -10 -31 -22 -9 -13 -14 -16 -10 -8 4 8 -10 -3 -30 -25 -53
-59 -58 -65 -49 -65 4 0 0 -5 -9 -11 -10 -5 -18 -17 -18 -24 0 -8 -6 -15 -12
-15 -10 0 -9 -3 1 -9 9 -6 10 -10 2 -12 -7 -3 -13 -14 -14 -27 0 -12 -5 -22
-10 -22 -5 0 -7 -9 -4 -20 3 -11 2 -20 -3 -20 -4 0 -6 -13 -4 -30 2 -17 -1
-30 -7 -30 -8 0 -8 -4 0 -13 8 -10 7 -17 -2 -27 -9 -10 -9 -11 1 -6 6 4 12 4
12 -1 0 -12 -14 -28 -25 -30 -5 -1 -19 -5 -29 -9 -12 -5 -17 -4 -13 3 4 6 -8
6 -31 -2 -28 -10 -39 -10 -44 -2 -5 7 -8 8 -8 2 0 -7 -15 -9 -36 -7 -29 4 -35
2 -28 -9 6 -12 5 -12 -8 -1 -11 9 -18 10 -23 2 -4 -7 -12 -7 -26 1 -17 8 -23
7 -35 -8 -8 -11 -13 -13 -14 -5 0 7 -5 10 -11 6 -6 -4 -41 -9 -77 -11 -37 -2
-70 -10 -74 -16 -6 -9 -8 -9 -8 0 0 8 -9 9 -27 4 -16 -4 -34 -6 -41 -4 -7 3
-20 -1 -29 -9 -14 -11 -16 -11 -8 1 6 11 4 13 -9 8 -10 -4 -24 -7 -32 -7 -10
0 -12 -5 -8 -12 6 -10 3 -9 -8 0 -13 11 -21 11 -39 2 -16 -9 -20 -9 -14 0 5 9
3 9 -11 2 -11 -5 -24 -7 -31 -5 -6 2 -14 -1 -18 -7 -5 -8 -10 -8 -20 0 -9 8
-15 8 -20 0 -3 -5 -11 -10 -16 -10 -6 0 -7 5 -3 11 4 8 1 8 -12 1 -11 -5 -27
-8 -36 -7 -10 2 -18 0 -18 -4 0 -3 -22 -6 -50 -5 -35 2 -48 -1 -43 -9 4 -7 -1
-6 -10 2 -15 12 -17 11 -17 -5 0 -12 -3 -15 -8 -8 -7 12 -65 17 -58 5 3 -4
-20 -6 -50 -4 -30 1 -54 -2 -54 -6 0 -5 -17 -6 -37 -4 -20 2 -43 1 -52 -3 -9
-4 -39 -8 -67 -9 -28 -1 -57 -6 -64 -10 -8 -5 -11 -4 -7 1 3 5 -3 10 -13 10
-10 0 -16 -4 -13 -8 2 -5 -7 -7 -21 -4 -14 3 -26 1 -26 -3 0 -4 -25 -6 -55 -6
-41 1 -55 -2 -51 -11 6 -15 -25 -6 -36 10 -6 8 -8 8 -8 0 0 -6 -10 -10 -22
-10 -13 1 -27 0 -33 -3 -5 -3 -26 -5 -45 -6 -19 -1 -41 -5 -49 -9 -8 -5 -17
-3 -22 5 -6 10 -9 11 -9 2 0 -7 -5 -13 -11 -13 -5 0 -7 6 -4 13 4 6 -1 3 -9
-7 -15 -18 -20 -15 -17 9 1 6 -4 3 -11 -5 -7 -8 -22 -15 -33 -14 -11 0 -27 -3
-36 -7 -9 -5 -21 -3 -27 3 -9 9 -12 9 -12 -1 0 -11 -3 -11 -15 -1 -10 9 -15 9
-15 1 0 -6 -7 -11 -16 -11 -9 0 -12 5 -8 13 5 8 2 8 -9 -2 -9 -7 -17 -10 -17
-7 0 4 -8 2 -18 -3 -11 -6 -24 -6 -36 1 -16 9 -17 7 -11 -13 3 -13 3 -19 -2
-13 -11 16 -44 21 -62 10 -8 -5 -16 -3 -22 5 -7 11 -9 9 -9 -6 0 -11 -4 -15
-8 -10 -9 13 -32 18 -32 7 0 -4 -9 -8 -20 -8 -11 0 -20 4 -20 9 0 5 -7 4 -15
-3 -8 -7 -22 -10 -30 -6 -8 3 -15 0 -15 -5 0 -7 -10 -5 -25 5 -23 15 -24 15
-18 -1 6 -16 5 -17 -12 -3 -10 8 -16 10 -12 3 4 -6 3 -14 -3 -18 -6 -3 -13 1
-16 10 -5 13 -9 14 -15 4 -5 -9 -32 -14 -74 -15 -36 -1 -72 -8 -80 -14 -12
-10 -15 -10 -15 0 0 9 -4 9 -13 2 -8 -7 -18 -7 -27 -2 -9 5 -19 5 -27 -1 -7
-6 -17 -8 -22 -5 -5 4 -13 2 -16 -4 -5 -8 -11 -7 -21 1 -11 9 -14 9 -14 -1 0
-7 -7 -10 -15 -6 -8 3 -26 1 -40 -4 -18 -7 -25 -6 -25 3 0 8 -3 8 -8 1 -4 -5
-28 -10 -55 -10 -36 1 -46 -2 -42 -13 4 -10 2 -11 -7 -3 -19 15 -30 15 -39 0
-6 -10 -9 -8 -9 7 0 16 -2 17 -9 6 -5 -8 -22 -14 -38 -15 -23 -1 -28 -5 -26
-24 2 -13 -1 -21 -5 -18 -5 3 -9 -1 -9 -9 0 -8 4 -12 7 -10 4 3 8 -14 8 -36 1
-22 7 -48 14 -57 7 -9 8 -13 2 -9 -7 4 -15 0 -18 -9 -3 -8 -2 -13 3 -10 5 3
12 -1 15 -10 4 -10 2 -13 -7 -8 -8 5 -7 2 2 -9 12 -15 11 -17 -5 -17 -16 -1
-15 -3 6 -15 14 -8 20 -14 13 -15 -8 0 -12 -35 -3 -35 1 0 3 -12 4 -27 1 -16
-3 -28 -9 -28 -6 0 -7 -3 0 -8 16 -11 19 -45 3 -37 -11 7 -11 5 0 -6 11 -12
14 -12 22 1 6 9 10 10 10 3 0 -7 -7 -16 -16 -21 -11 -6 -13 -11 -5 -16 6 -4
11 -14 11 -22 0 -10 -5 -12 -13 -8 -9 6 -9 4 -1 -7 19 -24 25 -67 11 -72 -9
-4 -9 -6 1 -6 7 -1 10 -5 7 -11 -3 -5 0 -10 7 -10 9 0 9 -3 -2 -10 -13 -8 -13
-10 -1 -10 11 0 9 -4 -5 -15 -10 -8 -14 -15 -9 -14 6 1 17 1 25 0 12 -1 12 -3
2 -9 -9 -7 -10 -15 -3 -35 6 -14 7 -29 2 -31 -5 -3 -6 -17 -4 -31 3 -15 10
-22 17 -18 7 4 7 1 -1 -8 -10 -12 -9 -20 4 -39 9 -13 11 -20 4 -16 -9 6 -11
-2 -7 -31 2 -21 5 -38 6 -38 1 0 3 -16 4 -35 1 -19 6 -42 10 -49 7 -10 5 -12
-5 -6 -12 8 -12 6 0 -8 10 -13 10 -17 1 -17 -10 0 -10 -3 0 -15 7 -8 9 -15 4
-15 -5 0 -2 -5 6 -10 11 -7 11 -10 2 -10 -7 0 -10 -5 -6 -11 4 -7 8 -32 8 -58
1 -26 5 -52 9 -58 4 -6 1 -14 -5 -16 -10 -4 -10 -6 0 -6 7 -1 10 -5 7 -11 -3
-5 0 -10 7 -10 10 0 10 -2 -1 -9 -8 -5 -10 -14 -5 -22 7 -12 14 -71 14 -127 0
-14 4 -21 11 -16 8 5 9 2 1 -12 -5 -10 -7 -27 -3 -38 3 -12 6 -33 5 -48 0 -16
3 -28 7 -28 5 0 4 -11 -1 -24 -5 -13 -6 -27 -2 -30 9 -10 12 -32 17 -125 2
-54 9 -87 17 -92 10 -7 10 -9 0 -9 -9 0 -10 -6 -5 -17 5 -10 8 -31 8 -48 0
-16 4 -33 10 -37 6 -5 5 -11 -4 -17 -9 -6 -10 -11 -2 -15 6 -4 11 -12 11 -17
0 -6 -4 -8 -9 -5 -5 4 -7 -3 -4 -14 3 -11 8 -18 12 -16 3 2 6 -15 6 -37 1 -23
4 -51 9 -62 6 -16 6 -17 -3 -5 -9 12 -11 10 -6 -10 3 -14 7 -36 9 -50 3 -14 5
-25 6 -25 1 0 3 -22 4 -50 6 -109 19 -211 28 -229 7 -13 7 -16 -1 -12 -14 9
-14 0 -1 -24 7 -13 7 -21 0 -25 -14 -9 -12 -25 3 -25 8 0 12 -17 11 -52 0 -29
3 -67 6 -84 4 -17 3 -39 -2 -48 -6 -11 -5 -16 4 -16 9 0 13 -17 14 -53 1 -75
7 -120 16 -134 5 -6 5 -14 -1 -17 -6 -4 -6 -18 -1 -35 4 -16 7 -45 6 -64 -1
-19 2 -33 6 -31 4 3 5 -9 3 -26 -2 -16 0 -30 4 -30 4 0 6 -13 3 -29 -2 -16 1
-39 8 -51 8 -15 8 -20 1 -16 -13 9 -14 0 -2 -23 5 -9 6 -23 1 -31 -5 -8 -2
-19 7 -29 11 -10 12 -16 4 -19 -6 -2 -8 -8 -5 -13 3 -6 8 -31 10 -57 3 -26 7
-65 10 -87 2 -22 5 -61 6 -87 1 -27 6 -48 10 -48 5 0 4 -10 -3 -21 -7 -14 -7
-19 0 -15 6 4 9 -4 6 -24 -2 -16 0 -32 5 -35 4 -3 6 -20 3 -39 -2 -19 0 -37 6
-41 6 -3 11 -11 11 -16 0 -6 -5 -7 -10 -4 -6 4 -5 -5 2 -20 10 -22 9 -28 -3
-36 -12 -7 -12 -9 1 -9 12 0 15 -12 13 -50 0 -28 3 -53 8 -56 6 -3 5 -11 -2
-20 -6 -8 -8 -14 -3 -14 5 0 9 -17 8 -38 0 -20 2 -41 5 -47 3 -5 5 -25 6 -43
0 -18 6 -36 13 -41 11 -6 10 -10 -4 -15 -16 -6 -16 -8 -4 -17 13 -7 13 -10 1
-18 -11 -7 -10 -11 5 -20 11 -6 14 -11 7 -11 -8 0 -9 -9 -4 -27 4 -16 7 -53 7
-84 -1 -44 2 -55 13 -51 11 4 11 1 2 -16 -6 -11 -8 -23 -3 -26 4 -2 7 -23 6
-46 0 -22 3 -43 8 -46 4 -3 8 -10 8 -15 0 -6 -5 -7 -12 -3 -7 5 -8 3 -3 -6 4
-7 10 -29 12 -49 9 -94 11 -110 18 -122 5 -8 4 -10 -3 -5 -7 4 -12 2 -12 -3 0
-6 3 -11 8 -11 4 0 7 -18 6 -40 0 -22 2 -40 5 -40 3 0 7 -17 8 -38 3 -75 23
-274 29 -284 2 -3 -2 -9 -8 -11 -8 -3 -6 -6 5 -6 18 -1 25 -21 6 -21 -5 0 -8
-3 -6 -7 3 -5 8 -30 11 -57 4 -27 9 -53 12 -57 2 -4 -2 -10 -8 -12 -10 -4 -10
-6 -1 -6 7 -1 10 -8 6 -18 -4 -11 -3 -14 5 -9 9 5 9 1 2 -18 -5 -14 -6 -28 -1
-30 5 -3 7 -24 5 -46 -2 -26 1 -40 9 -40 7 0 6 -4 -3 -10 -8 -5 -10 -10 -4
-10 7 0 9 -11 6 -26 -3 -15 -1 -24 4 -21 5 3 9 -28 9 -68 0 -40 3 -71 6 -69 4
2 9 -3 12 -11 4 -10 1 -12 -11 -8 -14 5 -15 4 -6 -8 6 -8 12 -21 12 -29 3 -71
10 -129 17 -140 5 -9 4 -15 -4 -18 -9 -3 -9 -7 0 -18 6 -7 12 -41 14 -74 1
-33 5 -63 8 -67 4 -3 2 -15 -4 -26 -9 -15 -8 -18 2 -12 9 6 11 3 6 -8 -3 -10
-3 -17 1 -17 4 0 6 -20 5 -45 0 -25 3 -48 8 -51 6 -3 6 -11 -1 -19 -7 -9 -8
-15 -1 -19 7 -5 7 -15 0 -33 -9 -24 -8 -25 7 -12 16 13 16 12 6 -8 -9 -17 -9
-24 0 -30 21 -12 38 -12 38 0 0 7 5 6 11 -3 8 -11 12 -12 16 -3 3 9 10 10 22
4 10 -6 23 -6 31 -1 8 5 18 6 22 4 4 -3 8 -1 8 5 0 5 11 8 25 5 15 -2 31 -1
38 3 6 4 29 6 50 4 31 -2 37 0 31 11 -5 9 -2 8 11 -2 22 -18 18 -18 39 -1 10
9 20 11 24 5 10 -13 36 -11 54 4 8 6 18 9 21 5 13 -12 57 -9 62 5 4 11 9 11
18 3 10 -8 17 -7 27 2 10 10 11 9 5 -2 -6 -10 -4 -12 6 -6 19 12 49 14 49 2 0
-5 9 1 20 14 12 15 19 18 18 9 -3 -15 4 -16 35 -5 13 6 16 3 11 -9 -3 -9 -1
-16 5 -16 6 0 10 6 9 13 -2 7 8 12 22 13 14 0 31 3 38 8 7 4 12 2 12 -5 0 -8
5 -7 17 2 9 8 17 14 17 13 1 0 12 -7 26 -14 24 -13 24 -12 10 5 -14 17 -13 17
5 8 11 -6 29 -9 40 -7 11 3 38 7 60 10 22 3 46 11 54 17 10 8 13 9 8 1 -4 -7
0 -14 8 -17 9 -4 12 -1 9 7 -3 8 0 17 7 22 8 5 10 3 4 -6 -6 -10 -4 -12 10 -6
16 6 16 4 4 -11 -13 -17 -13 -17 6 -2 21 18 128 32 118 16 -3 -5 4 -4 16 2 12
7 25 9 30 6 5 -3 12 1 14 7 3 8 6 6 6 -5 1 -15 3 -16 15 -5 8 7 12 16 9 21 -9
14 10 7 24 -10 8 -10 11 -12 7 -4 -5 11 -3 13 9 8 9 -3 19 -2 22 2 3 5 15 7
27 3 13 -3 19 -1 15 5 -7 11 34 10 52 -2 6 -3 11 -1 11 5 0 6 5 8 10 5 6 -4 7
-11 4 -17 -4 -7 -2 -8 5 -4 6 4 9 12 5 17 -3 6 5 8 20 5 14 -3 26 -2 26 2 0 4
15 6 32 6 18 -1 39 3 46 9 9 7 11 6 6 -7 -3 -9 -1 -16 5 -16 6 0 11 8 11 18 1
16 1 16 14 -1 10 -13 15 -15 19 -5 3 11 9 10 28 -1 22 -13 23 -13 11 1 -10 13
-10 17 0 21 7 2 21 0 31 -5 11 -6 17 -5 17 3 0 8 4 8 15 -1 11 -9 15 -9 15 -1
0 7 5 9 10 6 6 -3 10 0 10 7 0 10 2 10 9 -1 6 -8 16 -11 31 -6 15 5 20 3 16
-3 -3 -6 -2 -14 4 -17 6 -4 10 -3 9 2 -3 18 2 30 14 31 6 0 24 3 40 5 15 2 27
0 27 -6 0 -7 4 -7 12 1 16 16 31 15 22 -1 -6 -8 -3 -8 9 2 9 7 24 11 32 7 8
-3 15 -1 15 4 0 5 7 6 17 3 12 -5 14 -3 8 8 -7 12 -6 12 7 1 11 -9 23 -10 41
-3 14 5 28 7 31 4 3 -3 12 0 20 6 9 8 16 8 20 2 9 -14 37 -2 29 13 -3 6 3 2
15 -8 13 -11 22 -14 22 -7 0 7 10 10 25 7 13 -3 27 0 31 5 3 6 12 5 22 -3 12
-10 14 -10 8 0 -4 6 -2 12 3 12 6 0 11 -5 11 -11 0 -6 7 -3 16 6 14 13 19 14
25 3 7 -11 9 -11 9 0 0 10 4 10 16 -2 19 -20 28 -20 44 -1 7 8 16 12 21 9 5
-3 9 -1 9 4 0 10 30 9 48 -2 7 -4 12 -2 12 6 0 9 3 9 10 -2 8 -13 14 -8 12 10
0 3 20 5 44 5 25 -1 47 2 50 7 4 5 15 1 26 -9 13 -11 18 -13 16 -4 -2 7 7 15
20 17 16 3 21 0 16 -8 -6 -10 -4 -11 7 -1 17 17 32 17 23 1 -6 -9 -3 -9 9 0 9
8 21 11 27 7 6 -4 9 -3 8 2 -2 4 2 9 7 10 6 1 9 -5 7 -13 -2 -8 2 -14 8 -14 6
0 9 4 5 9 -3 6 4 15 16 22 18 9 21 9 17 -3 -4 -9 1 -14 12 -14 10 0 18 4 17 9
-1 5 6 11 16 12 20 4 22 -6 5 -24 -10 -10 -8 -10 10 0 12 8 20 19 18 25 -4 12
52 13 71 1 6 -4 15 -2 19 4 5 8 3 9 -6 4 -9 -5 -11 -4 -6 4 4 6 13 8 19 4 17
-10 47 -11 41 -1 -10 16 9 8 22 -9 10 -13 13 -14 9 -3 -7 20 45 26 57 8 6 -10
8 -9 8 4 0 12 6 15 22 10 14 -3 19 -2 14 6 -5 9 -1 9 17 3 18 -7 31 -5 47 6
13 9 20 11 16 5 -4 -7 -1 -12 9 -12 9 0 13 5 9 11 -5 8 -1 8 13 0 11 -6 23 -8
27 -4 3 3 16 7 28 7 13 1 28 5 35 9 15 9 27 -10 16 -26 -4 -7 2 -1 15 13 17
19 24 22 30 12 5 -7 16 -10 25 -6 9 3 14 11 10 17 -4 6 -1 7 6 3 7 -5 10 -15
7 -25 -3 -9 2 -6 10 7 15 20 42 33 30 14 -9 -14 28 -10 46 5 12 11 18 11 23 3
6 -9 10 -9 16 1 6 10 9 11 9 2 0 -7 5 -13 11 -13 5 0 7 6 3 13 -5 7 0 6 11 -3
10 -8 16 -10 12 -3 -4 6 -2 15 4 19 7 4 9 3 5 -4 -3 -6 -2 -13 4 -17 5 -3 10
1 10 9 0 9 5 16 11 16 5 0 8 -4 5 -8 -2 -4 -1 -14 5 -22 7 -12 9 -11 9 6 0 15
6 20 23 19 12 -1 30 2 40 7 12 6 17 5 17 -4 1 -8 7 -5 15 6 8 11 15 15 15 9 0
-12 25 -12 36 0 4 4 13 2 20 -4 11 -9 15 -7 20 5 6 15 8 15 21 -1 8 -10 12
-13 9 -7 -3 7 3 14 14 17 11 3 20 1 20 -4 0 -5 5 -9 11 -9 5 0 7 6 3 13 -6 9
-4 9 8 -1 10 -8 19 -9 22 -3 6 9 50 6 69 -6 6 -4 7 -1 2 7 -6 10 -4 12 8 7 10
-3 17 -3 17 1 0 4 9 8 19 8 11 0 17 -5 15 -11 -3 -5 1 -2 9 8 11 13 16 15 19
5 4 -11 8 -10 21 1 10 7 17 10 17 6 0 -4 6 -2 14 4 11 9 16 9 22 0 5 -8 3 -9
-6 -4 -9 5 -11 4 -6 -3 5 -8 18 -5 42 9 20 11 33 15 29 9 -7 -12 2 -12 30 -1
11 5 28 4 38 -1 12 -6 17 -5 17 4 0 9 3 9 10 -2 9 -13 10 -13 10 0 0 13 1 13
10 0 7 -11 10 -11 10 -2 0 7 5 10 10 7 6 -3 10 0 11 7 0 7 4 4 9 -7 7 -17 9
-17 9 -2 1 9 5 17 10 17 5 0 8 -11 7 -23 -2 -14 2 -24 10 -24 6 0 10 6 7 14
-8 21 5 45 19 36 21 -12 38 -12 38 0 0 8 3 7 9 -2 7 -11 14 -10 37 5 15 11 25
14 21 8 -4 -7 0 -15 9 -18 8 -3 13 -2 10 3 -3 5 1 11 9 15 8 3 15 1 15 -4 0
-6 5 -10 11 -10 5 0 7 6 3 13 -4 6 -4 9 1 5 4 -4 17 -3 28 3 12 7 17 7 13 1
-3 -5 1 -13 10 -16 24 -9 31 -7 14 4 -8 5 -10 10 -5 11 6 0 18 2 28 4 9 2 17
-2 17 -8 0 -7 5 -5 10 3 8 12 10 12 10 1 0 -8 3 -11 7 -8 3 4 12 2 20 -5 11
-8 12 -7 7 6 -3 9 -2 16 4 16 6 0 13 -6 15 -12 3 -8 6 -6 6 5 1 15 4 16 22 6
13 -7 19 -7 15 -1 -3 6 -2 13 4 17 5 3 10 1 10 -5 0 -8 6 -8 20 0 15 8 20 8
20 -1 0 -8 4 -8 15 1 8 7 15 10 15 6 0 -3 11 -1 25 4 15 6 26 6 30 -1 4 -5 11
-7 16 -4 19 12 49 13 50 2 0 -7 4 -3 9 8 5 11 9 14 9 6 1 -11 4 -11 18 0 15
12 16 12 9 -5 -7 -20 -7 -20 15 0 12 10 19 14 16 7 -10 -17 23 -10 34 8 6 10
9 10 9 2 0 -7 5 -13 11 -13 5 0 8 4 5 9 -9 14 20 7 40 -9 16 -14 16 -13 4 10
-12 22 -12 24 2 12 9 -7 19 -9 22 -4 3 5 24 8 46 6 29 -2 39 0 34 9 -3 7 4 1
15 -13 18 -21 20 -21 15 -5 -4 11 -4 17 1 13 4 -4 13 -4 19 1 17 15 65 21 72
10 3 -6 11 -6 17 -1 7 4 19 8 27 7 8 0 18 4 22 10 5 6 8 6 8 -2 0 -7 5 -13 11
-13 5 0 7 4 4 10 -4 6 3 6 21 0 22 -9 25 -8 21 4 -4 10 -1 13 8 9 8 -3 13 -9
10 -13 -3 -5 0 -12 6 -16 8 -4 9 -3 5 4 -4 7 -2 12 4 12 6 0 9 4 6 9 -7 10 20
9 30 -2 4 -3 14 -2 24 3 10 5 20 6 24 3 10 -11 37 -12 30 -2 -3 5 -10 6 -16 3
-7 -4 -8 -2 -4 4 4 6 13 9 21 5 9 -3 15 1 15 8 0 11 3 11 10 -1 5 -8 10 -11
10 -6 0 4 11 1 24 -7 23 -15 24 -15 20 6 -2 12 -2 16 2 10 4 -9 11 -10 22 -4
26 14 34 14 43 -1 7 -10 9 -10 9 2 0 13 1 13 10 0 9 -13 10 -13 10 1 0 11 9
15 33 14 19 -1 39 -5 45 -9 8 -5 10 -2 6 8 -9 25 12 19 25 -6 7 -14 9 -16 6
-5 -4 14 0 18 13 15 9 -2 23 3 30 12 10 13 11 13 7 0 -4 -11 2 -15 19 -15 15
0 21 4 16 10 -5 6 9 9 41 8 28 -1 48 1 45 5 -2 4 11 7 30 7 19 0 34 -3 34 -6
0 -3 7 -6 15 -6 8 0 12 4 9 9 -3 4 0 8 5 8 6 0 11 -5 11 -12 0 -6 3 -9 6 -6 3
4 0 17 -7 30 -11 21 -11 22 5 9 9 -8 19 -11 23 -7 3 3 1 6 -6 6 -7 0 -11 7 -8
14 4 9 1 13 -6 10 -13 -5 -16 40 -4 53 13 13 7 25 -10 19 -15 -5 -15 -4 1 9
20 15 20 15 0 15 -10 0 -15 4 -9 8 15 11 13 72 -3 72 -8 0 -10 5 -6 12 13 20
10 57 -4 63 -9 3 -10 10 -3 24 6 10 7 21 4 25 -4 3 -8 21 -9 39 -1 17 -3 34
-4 37 -6 14 -4 36 3 47 5 7 1 16 -10 23 -15 9 -14 10 7 4 22 -5 23 -5 8 7 -9
8 -18 31 -19 54 -2 22 -6 47 -10 56 -5 9 -3 21 4 28 9 9 8 14 -3 21 -13 8 -13
10 -1 10 11 0 10 4 -4 13 -14 11 -15 16 -5 22 9 6 11 4 5 -5 -5 -8 -4 -11 3
-6 6 4 9 13 6 21 -4 8 -10 13 -14 10 -5 -3 -7 3 -5 12 1 10 -2 26 -6 35 -5 9
-5 19 -1 22 7 4 8 39 2 56 -1 3 -3 10 -5 15 -1 6 -3 12 -4 15 -6 13 -5 80 0
80 4 0 10 8 14 18 5 14 4 15 -6 4 -19 -18 -31 -15 -20 7 6 10 8 21 5 24 -10
10 -11 42 -3 59 5 10 5 19 0 22 -5 4 -12 0 -14 -6 -4 -9 -6 -10 -6 -1 -1 6 3
14 9 18 5 3 7 12 4 20 -4 8 -11 12 -18 8 -6 -4 -4 2 4 12 12 14 12 19 2 23
-10 3 -10 9 3 28 8 13 12 24 8 23 -21 -3 -24 2 -12 18 12 15 12 16 -1 8 -13
-8 -13 -7 0 10 11 14 11 17 1 11 -10 -7 -12 -3 -6 14 5 15 4 20 -4 16 -7 -5
-8 -1 -4 10 4 12 3 15 -5 10 -8 -5 -10 -2 -6 8 3 9 10 16 16 16 5 0 7 -4 4 -9
-3 -5 2 -15 12 -22 15 -12 16 -12 6 1 -6 8 -10 23 -9 33 2 9 0 15 -4 13 -4 -3
-13 -1 -21 5 -12 7 -11 9 5 9 17 0 17 2 5 10 -8 5 -11 10 -6 10 5 0 4 6 -1 13
-6 6 -9 20 -8 29 2 10 -1 21 -6 24 -6 3 -3 16 6 31 10 14 13 23 7 19 -5 -3
-13 1 -16 10 -5 12 -2 15 9 10 9 -3 13 -2 10 4 -3 6 -14 10 -23 10 -10 0 -13
3 -7 8 12 9 16 52 4 52 -5 0 -9 5 -9 11 0 5 4 8 9 5 13 -9 8 27 -7 43 -7 7
-10 16 -7 19 3 4 10 0 15 -8 8 -13 10 -13 10 1 0 9 -7 20 -16 23 -9 4 -14 9
-11 13 4 3 2 14 -3 24 -7 12 -7 20 0 24 6 4 7 13 2 23 -10 20 -10 33 1 50 5 7
3 12 -4 12 -8 0 -9 10 -5 30 3 19 2 29 -4 25 -6 -3 -10 1 -10 10 0 9 4 14 8
11 5 -3 8 4 7 15 -1 11 -7 24 -14 29 -11 6 -11 9 0 13 9 4 10 6 2 6 -7 1 -10
8 -6 17 3 9 0 20 -8 24 -7 5 -10 12 -6 16 3 4 14 1 22 -6 11 -9 19 -10 26 -3
8 8 6 11 -7 10 -14 -2 -19 4 -18 21 1 17 -3 22 -14 17 -9 -3 -13 -3 -9 1 4 4
1 14 -6 22 -9 13 -9 14 1 8 13 -8 13 19 -1 41 -4 6 -2 15 4 19 8 5 9 3 4 -6
-6 -9 -4 -11 5 -5 11 7 10 10 -1 19 -8 6 -15 22 -17 36 -7 73 -6 98 3 93 6 -2
1 3 -9 11 -11 9 -15 16 -9 16 14 0 4 50 -11 50 -6 0 -3 5 8 11 12 8 15 14 7
18 -6 4 -12 20 -13 37 -1 16 -4 34 -7 39 -9 16 -10 35 -2 35 13 0 7 44 -8 56
-11 9 -11 13 3 26 9 9 11 18 6 20 -16 5 -21 50 -7 67 9 11 9 13 0 8 -6 -4 -14
-3 -18 3 -3 5 -1 10 5 10 6 0 9 4 6 9 -4 5 0 12 6 14 8 3 5 6 -6 6 -13 1 -16
6 -11 19 13 29 13 82 1 80 -6 -2 -11 1 -11 7 0 5 4 9 9 7 5 -2 2 8 -7 22 -11
16 -13 27 -6 31 7 5 6 11 -2 21 -9 11 -8 14 2 14 11 0 11 2 -1 10 -13 9 -13
10 0 11 10 0 8 3 -5 9 -11 5 -14 9 -7 9 8 1 10 6 5 14 -14 23 -10 91 6 104 14
10 13 11 -6 6 -19 -4 -21 -1 -19 23 2 15 11 33 21 41 22 15 12 18 -15 3 -15
-8 -17 -6 -13 10 3 11 8 20 12 20 4 0 7 10 8 21 2 20 1 20 -11 4 -10 -14 -15
-15 -21 -5 -6 9 -4 11 5 5 10 -6 12 -4 7 8 -3 9 -2 19 3 22 6 4 10 12 9 18 0
9 -2 9 -6 0 -11 -28 -20 -11 -16 28 4 32 2 40 -7 34 -8 -5 -11 -4 -7 2 4 6 20
9 37 8 16 -1 30 1 30 6 0 5 -11 7 -25 5 -26 -5 -46 17 -38 42 3 7 0 19 -6 26
-11 13 -5 26 12 26 5 0 7 -7 4 -15 -4 -8 -1 -17 6 -21 7 -4 9 -4 5 1 -4 4 -3
16 3 26 5 11 6 19 2 18 -25 -4 -35 3 -30 21 3 11 0 20 -5 20 -6 0 -5 6 2 15 9
10 9 15 1 15 -6 0 -11 9 -11 21 0 13 4 18 12 13 7 -5 8 -3 4 5 -5 7 0 19 10
27 11 9 12 12 4 8 -8 -4 -24 -14 -35 -23 -16 -13 -17 -13 -8 -1 14 19 14 70
-1 70 -6 0 -5 4 3 9 10 7 12 13 5 23 -12 15 -12 28 0 47 6 10 5 12 -2 7 -7 -4
-12 -2 -12 3 0 6 6 11 13 11 6 1 1 8 -13 16 -14 8 -18 13 -9 11 9 -3 16 1 16
9 0 7 -3 11 -7 9 -10 -6 -6 49 5 57 6 5 3 8 -6 8 -12 0 -16 8 -15 25 1 17 5
23 15 20 11 -4 12 -3 1 10 -7 8 -17 12 -22 9 -6 -4 -5 2 1 14 14 25 14 35 2
27 -6 -3 -8 4 -6 16 3 12 2 27 -2 32 -11 18 -11 110 -1 95 7 -9 8 -8 4 5 -3
10 -6 21 -6 23 0 3 -4 3 -9 -1 -5 -3 -13 0 -17 6 -4 7 -3 9 3 6 6 -4 17 1 24
10 12 15 12 16 -4 10 -11 -4 -16 -3 -12 4 4 5 1 17 -6 25 -10 12 -9 13 7 7 15
-5 17 -4 8 8 -17 21 -23 58 -12 65 6 4 5 9 -3 14 -10 7 -10 11 0 24 8 9 10 16
6 16 -4 0 -2 6 4 13 8 10 7 14 -4 14 -8 0 -11 -5 -8 -10 3 -6 2 -7 -3 -4 -14
8 -9 57 7 69 10 7 8 7 -9 3 -21 -6 -23 -5 -13 13 14 25 14 35 2 27 -10 -6 -8
17 4 48 4 10 3 17 -5 17 -6 0 -8 -4 -5 -10 3 -5 2 -10 -4 -10 -17 0 -22 18 -6
24 12 4 13 10 5 25 -13 26 -13 34 3 25 9 -5 9 -4 0 6 -6 7 -9 19 -6 26 3 8 1
14 -5 14 -10 0 -9 76 1 87 4 3 -4 14 -16 25 -12 11 -16 16 -8 12 11 -5 13 -3
8 9 -3 9 -2 19 3 22 6 4 10 12 9 18 0 9 -2 9 -6 0 -7 -18 -20 -16 -20 2 0 8 4
15 9 15 5 0 7 4 4 8 -3 5 -7 21 -10 35 -3 19 -1 25 7 20 9 -5 9 -3 1 8 -6 8
-14 23 -18 33 -7 20 -7 20 16 0 17 -14 19 -14 9 -2 -7 9 -10 22 -7 27 4 5 1
13 -5 17 -8 4 -9 3 -5 -4 4 -7 2 -12 -4 -12 -7 0 -9 7 -6 16 3 9 6 18 6 20 0
3 5 2 12 -2 7 -4 8 -3 4 4 -4 6 -13 9 -20 6 -14 -5 -16 22 -2 44 4 7 2 12 -4
12 -6 0 -10 8 -9 18 3 32 -1 43 -13 36 -7 -4 -8 -3 -4 5 4 6 11 9 16 6 9 -6
23 25 15 33 -3 3 -5 0 -5 -7 0 -7 -5 -9 -10 -6 -8 5 -8 11 0 20 7 9 6 16 -4
24 -13 11 -13 61 -1 82 4 5 0 9 -7 9 -8 0 -14 9 -14 20 0 14 5 19 15 15 12 -5
12 -3 0 11 -7 9 -14 26 -14 38 0 11 -4 27 -9 35 -7 11 -5 13 10 8 18 -7 18 -7
0 8 -15 11 -17 18 -9 26 9 9 8 16 -4 27 -10 10 -12 17 -5 20 6 2 8 10 5 18 -3
8 0 21 7 29 10 12 9 16 -4 21 -9 3 -14 10 -11 14 3 5 1 12 -5 15 -8 5 -7 11 1
21 9 11 9 14 -1 14 -9 0 -7 7 6 22 10 12 14 18 8 15 -7 -4 -17 0 -24 8 -10 12
-10 15 0 15 10 0 10 3 0 15 -10 12 -10 15 1 15 12 0 12 2 0 9 -8 5 -11 16 -8
25 3 8 3 17 -1 20 -4 2 -7 17 -6 33 1 15 -3 34 -9 41 -7 9 -6 11 5 7 9 -4 15
0 15 9 0 8 -4 13 -9 10 -8 -5 -12 9 -8 40 1 13 -2 16 -12 10 -11 -6 -11 -5 0
8 9 11 10 18 2 23 -7 4 -7 12 0 24 5 10 7 21 3 24 -7 8 -15 60 -17 110 0 20
-3 37 -7 37 -3 0 -6 12 -6 28 0 56 -6 127 -12 137 -3 6 -6 26 -6 45 l0 35 -52
0 c-29 0 -53 -4 -53 -8 0 -4 -9 -3 -19 2 -13 8 -22 7 -29 -2 -6 -7 -37 -12
-81 -12 -39 0 -71 -2 -71 -5 0 -3 -19 -6 -43 -7 -104 -5 -127 -8 -127 -15 0
-5 -5 -8 -11 -8 -5 0 -8 4 -5 8 6 10 -25 9 -42 -2 -6 -4 -12 -4 -12 1 0 4 -5
1 -10 -7 -7 -11 -10 -11 -10 -2 0 7 -4 10 -10 7 -5 -3 -42 -8 -82 -11 -94 -8
-92 -7 -100 -19 -5 -6 -8 -5 -8 3 0 7 -5 10 -10 7 -6 -4 -28 -8 -50 -10 -21
-2 -43 -5 -47 -8 -5 -3 -15 -2 -23 3 -8 5 -23 2 -39 -8 -17 -12 -23 -13 -17
-4 7 11 4 12 -10 5 -11 -5 -38 -9 -61 -8 -24 0 -43 -2 -43 -6 0 -3 -12 -4 -26
-1 -18 3 -25 1 -20 -6 6 -11 -19 -11 -29 0 -4 3 -19 3 -33 -1 -15 -5 -50 -7
-79 -7 -41 1 -49 -2 -41 -12 9 -10 6 -11 -14 -3 -14 5 -28 7 -31 4 -5 -5 -65
-11 -157 -17 -19 -1 -40 -4 -45 -7 -6 -2 -27 -4 -47 -4 -28 1 -38 -3 -38 -15
0 -9 -3 -11 -8 -4 -7 11 -82 16 -82 5 0 -3 -19 -6 -42 -5 -26 1 -51 -5 -63
-15 -18 -15 -19 -15 -6 2 8 10 9 17 3 17 -6 0 -15 -7 -20 -16 -8 -15 -10 -14
-16 2 -6 15 -9 16 -16 5 -6 -10 -27 -14 -69 -13 -34 0 -59 -3 -56 -8 3 -5 -5
-7 -17 -4 -13 3 -29 5 -35 5 -33 -2 -43 -5 -43 -11 0 -3 -23 -5 -50 -4 -28 2
-48 -1 -46 -5 3 -4 -4 -7 -14 -7 -16 0 -16 2 -3 22 8 12 21 25 29 28 8 3 14
12 14 21 0 8 5 15 10 15 6 0 10 9 10 21 0 11 4 18 8 15 4 -2 9 5 9 17 2 30 7
49 17 66 7 11 6 12 -5 6 -11 -7 -12 -6 -2 6 13 16 13 102 1 115 -5 4 -8 16 -8
27 0 11 -8 29 -17 40 -10 11 -12 17 -5 13 10 -6 10 -2 1 18 -7 14 -15 23 -20
21 -4 -3 -6 3 -5 12 2 10 -9 28 -23 40 -14 13 -22 23 -17 23 6 0 1 6 -9 14
-11 8 -24 12 -29 9 -5 -4 -6 -2 -3 4 4 5 -5 20 -18 31 -14 12 -25 19 -25 15 0
-3 -8 1 -17 9 -26 22 -85 49 -76 35 4 -7 -1 -6 -11 2 -10 8 -25 16 -34 17 -10
1 -26 5 -37 9 -16 5 -17 5 -5 -4 8 -6 10 -11 5 -11 -6 0 -16 5 -23 12 -7 7
-12 8 -12 4 0 -5 -8 -2 -17 5 -14 12 -16 12 -8 0z m2635 -1285 c0 -3 -4 -8
-10 -11 -5 -3 -10 -1 -10 4 0 6 5 11 10 11 6 0 10 -2 10 -4z m280 -2736 c0 -5
-2 -10 -4 -10 -3 0 -8 5 -11 10 -3 6 -1 10 4 10 6 0 11 -4 11 -10z m-2515
-3080 c3 -5 1 -10 -4 -10 -6 0 -11 5 -11 10 0 6 2 10 4 10 3 0 8 -4 11 -10z
m-1158 -136 c-9 -9 -28 6 -21 18 4 6 10 6 17 -1 6 -6 8 -13 4 -17z m-1533
-142 c3 -5 -1 -9 -9 -9 -8 0 -15 4 -15 9 0 4 4 8 9 8 6 0 12 -4 15 -8z"/>
<path d="M6865 6360 c-3 -6 1 -7 9 -4 18 7 21 14 7 14 -6 0 -13 -4 -16 -10z"/>
<path d="M6856 6302 c-3 -5 1 -9 9 -9 8 0 12 4 9 9 -3 4 -7 8 -9 8 -2 0 -6 -4
-9 -8z"/>
<path d="M6833 6275 c0 -8 4 -12 9 -9 5 3 6 10 3 15 -9 13 -12 11 -12 -6z"/>
<path d="M6875 6101 c-3 -5 -2 -12 3 -15 5 -3 9 1 9 9 0 17 -3 19 -12 6z"/>
<path d="M6870 5886 c0 -2 7 -7 16 -10 8 -3 12 -2 9 4 -6 10 -25 14 -25 6z"/>
<path d="M6955 5770 c10 -11 20 -20 23 -20 3 0 -3 9 -13 20 -10 11 -20 20 -23
20 -3 0 3 -9 13 -20z"/>
<path d="M6915 5729 c-4 -6 -5 -12 -2 -15 2 -3 7 2 10 11 7 17 1 20 -8 4z"/>
<path d="M6913 5655 c0 -8 4 -12 9 -9 5 3 6 10 3 15 -9 13 -12 11 -12 -6z"/>
<path d="M6926 5578 c3 -5 10 -6 15 -3 13 9 11 12 -6 12 -8 0 -12 -4 -9 -9z"/>
<path d="M6973 5503 c4 -3 1 -13 -6 -22 -11 -14 -10 -14 5 -2 16 12 16 31 1
31 -4 0 -3 -3 0 -7z"/>
<path d="M6930 5457 c0 -2 6 -10 14 -16 11 -9 16 -9 22 1 4 7 4 10 -1 6 -4 -4
-14 -3 -22 3 -7 6 -13 9 -13 6z"/>
<path d="M6955 5409 c-4 -6 -5 -12 -2 -15 2 -3 7 2 10 11 7 17 1 20 -8 4z"/>
<path d="M6939 5353 c-13 -17 -13 -17 6 -3 11 8 22 16 24 17 2 2 0 3 -6 3 -6
0 -17 -8 -24 -17z"/>
<path d="M6955 5329 c-4 -6 -5 -12 -2 -15 2 -3 7 2 10 11 7 17 1 20 -8 4z"/>
<path d="M6942 5284 c10 -10 20 -16 22 -13 3 3 -5 11 -17 18 -21 13 -21 12 -5
-5z"/>
<path d="M6944 5222 c4 -3 14 -7 22 -8 9 -1 13 0 10 4 -4 3 -14 7 -22 8 -9 1
-13 0 -10 -4z"/>
<path d="M7000 5200 c-9 -6 -10 -10 -3 -10 6 0 15 5 18 10 8 12 4 12 -15 0z"/>
<path d="M6950 5156 c0 -2 8 -10 18 -17 15 -13 16 -12 3 4 -13 16 -21 21 -21
13z"/>
<path d="M6974 5086 c1 -8 5 -18 8 -22 4 -3 5 1 4 10 -1 8 -5 18 -8 22 -4 3
-5 -1 -4 -10z"/>
<path d="M7056 5022 c-3 -5 1 -9 9 -9 8 0 12 4 9 9 -3 4 -7 8 -9 8 -2 0 -6 -4
-9 -8z"/>
<path d="M6980 4946 c0 -2 8 -10 18 -17 15 -13 16 -12 3 4 -13 16 -21 21 -21
13z"/>
<path d="M7039 4913 c-13 -16 -12 -17 4 -4 9 7 17 15 17 17 0 8 -8 3 -21 -13z"/>
<path d="M7030 4886 c0 -2 7 -7 16 -10 8 -3 12 -2 9 4 -6 10 -25 14 -25 6z"/>
<path d="M7034 4853 c2 -10 -2 -25 -8 -33 -9 -13 -9 -13 6 -2 16 12 18 35 6
48 -4 3 -5 -2 -4 -13z"/>
<path d="M7027 4779 c7 -7 15 -10 18 -7 3 3 -2 9 -12 12 -14 6 -15 5 -6 -5z"/>
<path d="M7066 4778 c3 -4 9 -8 15 -8 5 0 9 4 9 8 0 5 -7 9 -15 9 -8 0 -12 -4
-9 -9z"/>
<path d="M7006 4723 c-6 -14 -5 -15 5 -6 7 7 10 15 7 18 -3 3 -9 -2 -12 -12z"/>
<path d="M7075 4649 c-4 -6 -5 -12 -2 -15 2 -3 7 2 10 11 7 17 1 20 -8 4z"/>
<path d="M6995 4601 c-3 -5 -2 -12 3 -15 5 -3 9 1 9 9 0 17 -3 19 -12 6z"/>
<path d="M7086 4562 c-3 -5 1 -9 9 -9 8 0 12 4 9 9 -3 4 -7 8 -9 8 -2 0 -6 -4
-9 -8z"/>
<path d="M7011 4514 c0 -11 3 -14 6 -6 3 7 2 16 -1 19 -3 4 -6 -2 -5 -13z"/>
<path d="M7030 4516 c0 -2 8 -10 18 -17 15 -13 16 -12 3 4 -13 16 -21 21 -21
13z"/>
<path d="M7071 4467 c-8 -10 -7 -14 2 -14 8 0 14 6 14 14 0 7 -1 13 -2 13 -2
0 -8 -6 -14 -13z"/>
<path d="M7130 4460 c0 -5 5 -10 11 -10 5 0 7 5 4 10 -3 6 -8 10 -11 10 -2 0
-4 -4 -4 -10z"/>
<path d="M7075 4400 c-3 -5 -1 -10 4 -10 6 0 11 5 11 10 0 6 -2 10 -4 10 -3 0
-8 -4 -11 -10z"/>
<path d="M7038 4333 c7 -3 16 -2 19 1 4 3 -2 6 -13 5 -11 0 -14 -3 -6 -6z"/>
<path d="M7084 4322 c23 -26 23 -26 23 -7 0 8 -3 13 -5 10 -3 -3 -12 1 -21 7
-10 8 -9 4 3 -10z"/>
<path d="M7150 4336 c0 -2 8 -10 18 -17 15 -13 16 -12 3 4 -13 16 -21 21 -21
13z"/>
<path d="M7073 4285 c0 -8 4 -15 9 -15 4 0 8 4 8 9 0 6 -4 12 -8 15 -5 3 -9
-1 -9 -9z"/>
<path d="M7175 4291 c-3 -5 -2 -12 3 -15 5 -3 9 1 9 9 0 17 -3 19 -12 6z"/>
<path d="M7030 4266 c0 -2 7 -7 16 -10 8 -3 12 -2 9 4 -6 10 -25 14 -25 6z"/>
<path d="M7038 4213 c7 -3 16 -2 19 1 4 3 -2 6 -13 5 -11 0 -14 -3 -6 -6z"/>
<path d="M7110 4176 c7 -7 13 -7 20 0 6 6 3 10 -10 10 -13 0 -16 -4 -10 -10z"/>
<path d="M7091 4154 c0 -11 3 -14 6 -6 3 7 2 16 -1 19 -3 4 -6 -2 -5 -13z"/>
<path d="M7135 4130 c-4 -6 -11 -7 -17 -4 -7 4 -8 2 -4 -5 6 -9 11 -9 22 0 14
11 18 19 10 19 -3 0 -8 -5 -11 -10z"/>
<path d="M7077 4112 c-14 -15 -15 -19 -2 -19 8 0 11 5 8 10 -4 6 0 8 10 4 11
-4 14 -2 10 9 -7 18 -7 18 -26 -4z"/>
<path d="M7215 4120 c-3 -5 -1 -10 4 -10 6 0 11 5 11 10 0 6 -2 10 -4 10 -3 0
-8 -4 -11 -10z"/>
<path d="M7150 4117 c0 -2 6 -10 14 -16 11 -9 16 -9 22 1 4 7 4 10 -1 6 -4 -4
-14 -3 -22 3 -7 6 -13 9 -13 6z"/>
<path d="M7115 4070 c-3 -5 -3 -10 1 -10 4 0 -1 -10 -12 -22 -19 -22 -19 -22
0 -8 18 13 19 13 14 -1 -4 -9 -1 -16 7 -16 10 0 11 6 6 16 -5 9 -7 24 -6 34 4
19 -1 22 -10 7z"/>
<path d="M7146 4039 c4 -8 30 -6 38 2 3 3 -5 5 -19 5 -13 0 -22 -3 -19 -7z"/>
<path d="M7216 4018 c3 -5 10 -6 15 -3 13 9 11 12 -6 12 -8 0 -12 -4 -9 -9z"/>
<path d="M7090 3960 c0 -5 5 -10 10 -10 6 0 10 5 10 10 0 6 -4 10 -10 10 -5 0
-10 -4 -10 -10z"/>
<path d="M7149 3943 c-13 -16 -12 -17 4 -4 16 13 21 21 13 21 -2 0 -10 -8 -17
-17z"/>
<path d="M7150 3916 c0 -2 8 -10 18 -17 15 -13 16 -12 3 4 -13 16 -21 21 -21
13z"/>
<path d="M7114 3896 c1 -8 5 -18 8 -22 4 -3 5 1 4 10 -1 8 -5 18 -8 22 -4 3
-5 -1 -4 -10z"/>
<path d="M7090 3886 c0 -8 4 -17 9 -20 5 -4 7 3 4 14 -6 23 -13 26 -13 6z"/>
<path d="M7134 3841 c0 -11 5 -17 13 -14 10 4 11 9 2 19 -15 18 -15 18 -15 -5z"/>
<path d="M7084 3805 c-10 -8 -14 -15 -8 -15 6 0 17 7 24 15 16 19 9 19 -16 0z"/>
<path d="M7225 3800 c-3 -6 1 -7 9 -4 18 7 21 14 7 14 -6 0 -13 -4 -16 -10z"/>
<path d="M7197 3768 c19 -21 31 -25 14 -5 -6 8 -9 16 -6 19 3 2 -2 5 -10 5
-13 0 -13 -3 2 -19z"/>
<path d="M7255 3781 c-3 -5 -2 -12 3 -15 5 -3 9 1 9 9 0 17 -3 19 -12 6z"/>
<path d="M7135 3769 c-4 -6 -14 -8 -22 -4 -13 4 -13 3 -4 -9 9 -11 9 -15 -1
-19 -7 -3 -3 -4 8 -4 15 1 20 6 16 16 -3 8 -1 12 5 8 5 -3 10 0 10 8 0 18 -3
19 -12 4z"/>
<path d="M7204 3718 c-12 -14 -13 -18 -3 -10 9 6 18 10 21 7 2 -3 5 2 5 10 0
19 0 19 -23 -7z"/>
<path d="M7080 3706 c0 -2 7 -9 15 -16 13 -11 14 -10 9 4 -5 14 -24 23 -24 12z"/>
<path d="M7148 3695 c4 -5 7 -13 7 -17 0 -3 2 -8 5 -10 3 -1 4 -1 3 1 -1 2 2
11 7 20 6 13 4 17 -10 17 -10 0 -16 -5 -12 -11z"/>
<path d="M7130 3650 c-11 -7 -11 -10 -2 -10 7 0 10 -4 7 -10 -4 -6 1 -7 11 -3
13 5 15 3 9 -8 -5 -8 -4 -11 0 -6 16 14 14 36 -3 30 -10 -4 -13 -2 -8 5 9 14
6 15 -14 2z"/>
<path d="M7204 3642 c4 -3 14 -7 22 -8 9 -1 13 0 10 4 -4 3 -14 7 -22 8 -9 1
-13 0 -10 -4z"/>
<path d="M7234 3608 l-19 -23 23 19 c12 11 22 21 22 23 0 8 -8 2 -26 -19z"/>
<path d="M7116 3594 c-8 -20 -8 -24 2 -24 4 0 8 9 9 20 2 24 -3 26 -11 4z"/>
<path d="M7193 3595 c0 -8 4 -12 9 -9 5 3 6 10 3 15 -9 13 -12 11 -12 -6z"/>
<path d="M7165 3579 c-4 -6 -5 -12 -2 -15 2 -3 7 2 10 11 7 17 1 20 -8 4z"/>
<path d="M7132 3561 c-11 -7 -11 -9 0 -14 9 -3 15 1 15 9 0 8 -1 14 -1 14 -1
0 -7 -4 -14 -9z"/>
<path d="M7226 3542 c-3 -5 1 -9 9 -9 8 0 15 4 15 9 0 4 -4 8 -9 8 -6 0 -12
-4 -15 -8z"/>
<path d="M7155 3511 c-6 -11 13 -26 22 -17 4 3 1 6 -6 6 -7 0 -9 5 -6 10 3 6
4 10 1 10 -3 0 -7 -4 -11 -9z"/>
<path d="M7196 3501 c-3 -4 4 -17 17 -27 22 -19 22 -19 4 2 -9 11 -14 24 -10
27 3 4 4 7 0 7 -3 0 -8 -4 -11 -9z"/>
<path d="M7231 3493 c7 -12 15 -20 18 -17 3 2 -3 12 -13 22 -17 16 -18 16 -5
-5z"/>
<path d="M7115 3461 c-3 -5 0 -13 6 -17 7 -4 9 -3 5 4 -3 5 0 13 6 15 9 4 10
6 1 6 -6 1 -14 -3 -18 -8z"/>
<path d="M7270 3460 c0 -5 5 -10 11 -10 5 0 7 5 4 10 -3 6 -8 10 -11 10 -2 0
-4 -4 -4 -10z"/>
<path d="M7231 3447 c2 -1 13 -9 24 -17 19 -14 19 -14 6 3 -7 9 -18 17 -24 17
-6 0 -8 -1 -6 -3z"/>
<path d="M7150 3398 c0 -4 4 -8 9 -8 6 0 12 4 15 8 3 5 -1 9 -9 9 -8 0 -15 -4
-15 -9z"/>
<path d="M7233 3373 c0 -9 4 -10 14 -2 7 6 13 12 13 14 0 1 -6 2 -13 2 -8 0
-14 -6 -14 -14z"/>
<path d="M7259 3353 c-13 -16 -12 -17 4 -4 16 13 21 21 13 21 -2 0 -10 -8 -17
-17z"/>
<path d="M7195 3340 c-16 -7 -17 -9 -3 -9 9 -1 20 4 23 9 7 11 7 11 -20 0z"/>
<path d="M7235 3321 c3 -2 -1 -11 -7 -20 -7 -9 -2 -7 11 4 13 11 25 18 26 15
2 -3 6 -3 9 1 3 3 -6 5 -19 5 -13 0 -22 -2 -20 -5z"/>
<path d="M7252 3291 c-11 -6 -10 -10 0 -19 11 -8 14 -7 14 9 0 10 0 19 -1 19
0 0 -6 -4 -13 -9z"/>
<path d="M7195 3280 c-3 -5 -1 -10 4 -10 6 0 11 5 11 10 0 6 -2 10 -4 10 -3 0
-8 -4 -11 -10z"/>
<path d="M7230 3230 c-6 -12 -5 -17 5 -17 8 0 11 7 7 16 -5 13 -3 14 9 4 13
-10 16 -10 16 0 0 19 -26 17 -37 -3z"/>
<path d="M7305 3220 c-3 -6 1 -7 9 -4 18 7 21 14 7 14 -6 0 -13 -4 -16 -10z"/>
<path d="M7175 3200 c-4 -6 -3 -10 2 -9 20 3 27 -2 13 -11 -11 -7 -11 -10 -2
-10 7 0 11 -4 8 -9 -7 -11 20 -8 31 3 4 4 4 7 -2 6 -20 -4 -30 0 -18 8 9 6 7
11 -7 20 -12 7 -21 8 -25 2z"/>
<path d="M7306 3179 c2 -4 13 -7 24 -6 23 2 17 10 -10 12 -10 1 -17 -2 -14 -6z"/>
<path d="M7266 3162 c-3 -5 1 -9 9 -9 8 0 15 4 15 9 0 4 -4 8 -9 8 -6 0 -12
-4 -15 -8z"/>
<path d="M7233 3116 c3 -8 2 -17 -4 -20 -5 -2 -4 -3 2 -2 15 3 21 36 7 36 -6
0 -8 -6 -5 -14z"/>
<path d="M7190 3105 c5 -22 -1 -29 -11 -15 -8 12 -10 12 -7 1 5 -18 37 -23 34
-5 -1 7 -6 17 -10 21 -4 4 -7 4 -6 -2z"/>
<path d="M7241 3061 c-8 -5 -9 -11 -3 -15 5 -3 12 1 16 9 6 17 6 18 -13 6z"/>
<path d="M7300 3065 c0 -2 6 -8 13 -14 10 -8 14 -7 14 2 0 8 -6 14 -14 14 -7
0 -13 -1 -13 -2z"/>
<path d="M7280 3046 c0 -2 8 -10 18 -17 15 -13 16 -12 3 4 -13 16 -21 21 -21
13z"/>
<path d="M7199 3028 c-6 -20 -6 -39 0 -42 4 -3 7 6 7 20 0 20 -4 32 -7 22z"/>
<path d="M7293 2996 c-3 -6 -2 -8 2 -3 5 4 18 -1 29 -10 15 -14 18 -14 8 -2
-6 9 -10 18 -7 21 3 2 -2 5 -10 5 -9 0 -19 -5 -22 -11z"/>
<path d="M7370 2980 c0 -5 5 -10 11 -10 5 0 7 5 4 10 -3 6 -8 10 -11 10 -2 0
-4 -4 -4 -10z"/>
<path d="M7260 2972 c0 -6 -8 -9 -17 -6 -15 5 -16 4 -3 -5 16 -11 40 3 27 16
-4 3 -7 1 -7 -5z"/>
<path d="M7294 2959 c0 -13 3 -15 13 -7 7 6 13 12 13 13 0 2 -6 5 -13 8 -7 3
-13 -3 -13 -14z"/>
<path d="M7198 2943 c7 -3 16 -2 19 1 4 3 -2 6 -13 5 -11 0 -14 -3 -6 -6z"/>
<path d="M7176 2927 c3 -10 9 -15 12 -12 3 3 0 11 -7 18 -10 9 -11 8 -5 -6z"/>
<path d="M7206 2918 c3 -5 10 -6 15 -3 13 9 11 12 -6 12 -8 0 -12 -4 -9 -9z"/>
<path d="M7273 2915 c0 -8 4 -12 9 -9 4 3 8 9 8 15 0 5 -4 9 -8 9 -5 0 -9 -7
-9 -15z"/>
<path d="M7211 2893 c-1 -18 13 -23 29 -11 12 8 12 9 -2 5 -9 -3 -19 -1 -22 6
-3 9 -5 9 -5 0z"/>
<path d="M7273 2833 c0 -9 4 -10 14 -2 7 6 13 12 13 14 0 1 -6 2 -13 2 -8 0
-14 -6 -14 -14z"/>
<path d="M7310 2814 c6 -6 6 -15 2 -19 -4 -5 -1 -5 6 -1 7 4 12 2 12 -5 0 -7
3 -9 6 -6 4 4 2 13 -5 21 -9 11 -9 15 1 19 7 3 3 4 -9 4 -15 -1 -19 -5 -13
-13z"/>
<path d="M7211 2813 c-1 -18 13 -23 29 -11 12 8 12 9 -2 5 -9 -3 -19 -1 -22 6
-3 9 -5 9 -5 0z"/>
<path d="M7270 2771 c11 -22 10 -33 -3 -51 -11 -13 -10 -13 6 -1 9 8 15 16 12
19 -3 3 1 12 8 20 10 13 9 14 -2 7 -11 -6 -13 -4 -9 7 4 8 0 15 -7 15 -10 0
-11 -5 -5 -16z"/>
<path d="M7395 2769 c-4 -6 -5 -12 -2 -15 2 -3 7 2 10 11 7 17 1 20 -8 4z"/>
<path d="M7350 2766 c0 -2 7 -7 16 -10 8 -3 12 -2 9 4 -6 10 -25 14 -25 6z"/>
<path d="M7226 2743 c-6 -14 -5 -15 5 -6 7 7 10 15 7 18 -3 3 -9 -2 -12 -12z"/>
<path d="M7379 2673 c-13 -16 -12 -17 4 -4 16 13 21 21 13 21 -2 0 -10 -8 -17
-17z"/>
<path d="M7210 2650 c-9 -6 -10 -10 -3 -10 6 0 15 5 18 10 8 12 4 12 -15 0z"/>
<path d="M7333 2647 c0 -9 5 -13 10 -10 6 4 8 0 4 -9 -6 -16 17 -20 28 -5 3 4
2 5 -1 2 -4 -2 -14 5 -24 17 -13 17 -17 18 -17 5z"/>
<path d="M7239 2618 c-5 -18 -6 -38 -1 -34 7 8 12 36 6 36 -2 0 -4 -1 -5 -2z"/>
<path d="M7319 2618 c-5 -18 -6 -38 -1 -34 7 8 12 36 6 36 -2 0 -4 -1 -5 -2z"/>
<path d="M7394 2603 c3 -4 1 -11 -4 -18 -7 -8 -5 -12 5 -12 7 0 13 5 12 11 -1
6 5 10 13 8 8 -2 11 0 7 4 -4 4 -15 9 -23 10 -9 1 -13 0 -10 -3z"/>
<path d="M7275 2559 c-3 -4 2 -6 10 -5 21 3 28 13 10 13 -9 0 -18 -4 -20 -8z"/>
<path d="M7387 2539 c7 -8 11 -26 8 -39 -2 -12 -1 -20 2 -16 14 14 12 45 -5
57 -15 12 -16 12 -5 -2z"/>
<path d="M7356 2498 c3 -5 10 -6 15 -3 13 9 11 12 -6 12 -8 0 -12 -4 -9 -9z"/>
<path d="M7291 2493 c-1 -18 13 -23 29 -11 12 8 12 9 -2 5 -9 -3 -19 -1 -22 6
-3 9 -5 9 -5 0z"/>
<path d="M7465 2480 c-3 -6 1 -7 9 -4 18 7 21 14 7 14 -6 0 -13 -4 -16 -10z"/>
<path d="M7336 2438 c3 -4 11 -5 19 -1 21 7 19 12 -4 10 -11 0 -18 -5 -15 -9z"/>
<path d="M7385 2441 c3 -3 17 -6 31 -7 13 0 22 2 19 5 -3 3 -17 6 -31 7 -13 0
-22 -2 -19 -5z"/>
<path d="M7364 2419 c-3 -6 0 -17 8 -25 13 -13 15 -13 15 0 0 8 -5 12 -10 9
-6 -4 -8 0 -4 10 7 19 2 23 -9 6z"/>
<path d="M7250 2406 c0 -2 7 -7 16 -10 8 -3 12 -2 9 4 -6 10 -25 14 -25 6z"/>
<path d="M7317 2395 c-6 -15 10 -32 20 -21 4 3 1 6 -5 6 -6 0 -9 7 -6 15 4 8
4 15 1 15 -3 0 -7 -7 -10 -15z"/>
<path d="M7235 2369 c1 -10 4 -21 8 -24 4 -3 5 -2 2 1 -2 4 0 14 5 24 6 12 5
17 -4 17 -7 0 -12 -8 -11 -18z"/>
<path d="M7286 2358 c3 -4 9 -8 15 -8 5 0 9 4 9 8 0 5 -7 9 -15 9 -8 0 -12 -4
-9 -9z"/>
<path d="M7453 2355 c0 -8 4 -12 9 -9 5 3 6 10 3 15 -9 13 -12 11 -12 -6z"/>
<path d="M7490 2360 c0 -5 5 -10 11 -10 5 0 7 5 4 10 -3 6 -8 10 -11 10 -2 0
-4 -4 -4 -10z"/>
<path d="M7270 2320 c0 -5 5 -10 11 -10 5 0 7 5 4 10 -3 6 -8 10 -11 10 -2 0
-4 -4 -4 -10z"/>
<path d="M7390 2310 c-9 -6 -10 -10 -3 -10 6 0 15 5 18 10 8 12 4 12 -15 0z"/>
<path d="M7470 2300 c0 -5 5 -10 11 -10 5 0 7 5 4 10 -3 6 -8 10 -11 10 -2 0
-4 -4 -4 -10z"/>
<path d="M7415 2290 c-4 -6 -10 -8 -14 -6 -4 3 -8 -1 -8 -9 0 -10 4 -12 12 -5
7 5 14 8 17 5 2 -3 5 2 5 10 0 18 -3 19 -12 5z"/>
<path d="M7307 2279 c7 -7 15 -10 18 -7 3 3 -2 9 -12 12 -14 6 -15 5 -6 -5z"/>
<path d="M7490 2259 c0 -5 5 -7 10 -4 6 3 10 8 10 11 0 2 -4 4 -10 4 -5 0 -10
-5 -10 -11z"/>
<path d="M7335 2252 c18 -17 55 -24 55 -11 0 7 -3 10 -6 6 -3 -3 -18 -1 -33 4
-15 6 -22 6 -16 1z"/>
<path d="M7412 2251 c-11 -6 -10 -10 0 -19 11 -8 14 -7 14 9 0 10 0 19 -1 19
0 0 -6 -4 -13 -9z"/>
<path d="M7282 2241 c-10 -6 -10 -10 3 -21 13 -11 14 -10 9 5 -6 14 -4 16 6
10 9 -5 11 -4 6 3 -8 14 -7 14 -24 3z"/>
<path d="M7454 2242 c4 -3 14 -7 22 -8 9 -1 13 0 10 4 -4 3 -14 7 -22 8 -9 1
-13 0 -10 -4z"/>
<path d="M7319 2208 c15 -21 31 -23 31 -6 0 6 -3 8 -7 5 -3 -4 -13 -1 -22 6
-14 11 -14 10 -2 -5z"/>
<path d="M7515 2211 c-3 -5 -2 -12 3 -15 5 -3 9 1 9 9 0 17 -3 19 -12 6z"/>
<path d="M7436 2178 c3 -5 10 -6 15 -3 13 9 11 12 -6 12 -8 0 -12 -4 -9 -9z"/>
<path d="M7473 2183 c4 -3 -1 -16 -10 -27 -18 -21 -18 -21 4 -2 20 16 23 36 6
36 -4 0 -3 -3 0 -7z"/>
<path d="M7370 2118 c0 -6 3 -8 7 -5 3 4 13 1 22 -6 14 -11 14 -10 2 6 -15 20
-31 22 -31 5z"/>
<path d="M7445 2119 c-3 -4 2 -6 10 -5 21 3 28 13 10 13 -9 0 -18 -4 -20 -8z"/>
<path d="M7426 2096 c5 -12 4 -17 -3 -13 -5 3 -10 -1 -10 -9 0 -13 2 -13 16 0
12 13 13 18 2 28 -10 11 -11 9 -5 -6z"/>
<path d="M7350 2070 c-11 -7 -11 -10 -2 -10 8 0 10 -5 6 -12 -4 -7 -3 -9 1 -5
7 6 17 37 12 37 -1 0 -9 -5 -17 -10z"/>
<path d="M7436 2062 c-3 -5 1 -9 9 -9 8 0 12 4 9 9 -3 4 -7 8 -9 8 -2 0 -6 -4
-9 -8z"/>
<path d="M7493 2045 c0 -8 4 -15 9 -15 4 0 8 4 8 9 0 6 -4 12 -8 15 -5 3 -9
-1 -9 -9z"/>
<path d="M7397 2035 c-4 -8 -1 -17 5 -21 7 -5 8 -2 3 6 -6 10 -4 12 10 6 15
-5 16 -4 5 9 -15 19 -16 19 -23 0z"/>
<path d="M7471 2013 c7 -12 15 -20 18 -17 3 2 -3 12 -13 22 -17 16 -18 16 -5
-5z"/>
<path d="M7359 2008 c-5 -18 -6 -38 -1 -34 7 8 12 36 6 36 -2 0 -4 -1 -5 -2z"/>
<path d="M7426 1998 c3 -4 9 -8 15 -8 5 0 9 4 9 8 0 5 -7 9 -15 9 -8 0 -12 -4
-9 -9z"/>
<path d="M7489 1963 c-13 -16 -12 -17 4 -4 16 13 21 21 13 21 -2 0 -10 -8 -17
-17z"/>
<path d="M7280 1960 c-12 -7 -10 -9 8 -7 12 0 22 5 22 9 0 11 -12 10 -30 -2z"/>
<path d="M7505 1940 c-3 -6 1 -7 9 -4 18 7 21 14 7 14 -6 0 -13 -4 -16 -10z"/>
<path d="M7426 1918 c3 -4 9 -8 15 -8 5 0 9 4 9 8 0 5 -7 9 -15 9 -8 0 -12 -4
-9 -9z"/>
<path d="M7507 1899 c7 -7 15 -10 18 -7 3 3 -2 9 -12 12 -14 6 -15 5 -6 -5z"/>
<path d="M7336 1882 c-3 -5 1 -9 9 -9 8 0 12 4 9 9 -3 4 -7 8 -9 8 -2 0 -6 -4
-9 -8z"/>
<path d="M7466 1878 c3 -4 9 -8 15 -8 5 0 9 4 9 8 0 5 -7 9 -15 9 -8 0 -12 -4
-9 -9z"/>
<path d="M7540 1886 c0 -2 8 -10 18 -17 15 -13 16 -12 3 4 -13 16 -21 21 -21
13z"/>
<path d="M7425 1845 c11 -9 19 -19 18 -23 -1 -4 0 -9 2 -10 2 -2 2 4 1 13 -1
10 -11 22 -22 27 -18 9 -17 8 1 -7z"/>
<path d="M7490 1856 c0 -2 8 -10 18 -17 15 -13 16 -12 3 4 -13 16 -21 21 -21
13z"/>
<path d="M7297 1836 c-4 -10 1 -12 14 -9 23 6 24 9 5 16 -8 3 -17 0 -19 -7z"/>
<path d="M7366 1842 c-3 -5 1 -9 9 -9 8 0 12 4 9 9 -3 4 -7 8 -9 8 -2 0 -6 -4
-9 -8z"/>
<path d="M7474 1831 c4 -5 0 -11 -6 -14 -7 -3 -3 -4 9 -4 17 1 19 4 11 14 -12
15 -22 18 -14 4z"/>
<path d="M7347 1812 c4 -9 2 -13 -4 -9 -5 3 -10 0 -10 -8 0 -12 4 -12 21 2 12
10 22 18 24 19 1 1 -6 4 -17 7 -15 3 -18 1 -14 -11z"/>
<path d="M7576 1818 c3 -4 11 -5 19 -1 21 7 19 12 -4 10 -11 0 -18 -5 -15 -9z"/>
<path d="M7394 1800 c0 -13 4 -16 10 -10 7 7 7 13 0 20 -6 6 -10 3 -10 -10z"/>
<path d="M7355 1781 c-3 -5 0 -13 6 -17 7 -4 9 -3 5 4 -3 5 0 13 6 15 9 4 10
6 1 6 -6 1 -14 -3 -18 -8z"/>
<path d="M7439 1788 c-6 -21 -5 -37 2 -32 5 3 7 9 4 14 -3 4 1 11 7 13 10 4
10 6 1 6 -7 1 -13 0 -14 -1z"/>
<path d="M7314 1752 c-9 -14 -8 -18 6 -18 11 0 15 6 12 18 -2 10 -5 18 -6 18
-1 0 -6 -8 -12 -18z"/>
<path d="M7475 1753 c1 -10 -5 -27 -14 -38 -15 -19 -15 -19 3 -5 18 13 19 13
14 -1 -4 -9 -1 -16 7 -16 10 0 11 6 6 16 -5 9 -7 24 -6 33 2 10 0 20 -5 23 -5
3 -7 -3 -5 -12z"/>
<path d="M7570 1739 c0 -5 5 -7 10 -4 6 3 10 8 10 11 0 2 -4 4 -10 4 -5 0 -10
-5 -10 -11z"/>
<path d="M7340 1720 c-9 -6 -10 -10 -3 -10 6 0 15 5 18 10 8 12 4 12 -15 0z"/>
<path d="M7524 1722 c4 -3 14 -7 22 -8 9 -1 13 0 10 4 -4 3 -14 7 -22 8 -9 1
-13 0 -10 -4z"/>
<path d="M7430 1705 c0 -5 5 -17 10 -25 5 -8 10 -10 10 -5 0 6 -5 17 -10 25
-5 8 -10 11 -10 5z"/>
<path d="M7555 1689 c-4 -6 -5 -12 -2 -15 2 -3 7 2 10 11 7 17 1 20 -8 4z"/>
<path d="M7510 1676 c0 -2 8 -10 18 -17 15 -13 16 -12 3 4 -13 16 -21 21 -21
13z"/>
<path d="M7477 1657 c4 -7 -1 -8 -13 -3 -15 6 -17 5 -6 -5 10 -11 15 -10 28 2
13 14 13 16 0 16 -8 0 -12 -5 -9 -10z"/>
<path d="M7420 1651 c0 -10 19 -25 25 -20 1 2 -3 10 -11 17 -8 7 -14 8 -14 3z"/>
<path d="M7333 1634 c0 -11 3 -11 16 -1 12 10 14 9 9 -4 -4 -9 -1 -16 8 -16 9
0 10 5 5 15 -11 20 -38 24 -38 6z"/>
<path d="M7605 1640 c-3 -6 1 -7 9 -4 18 7 21 14 7 14 -6 0 -13 -4 -16 -10z"/>
<path d="M7415 1610 c-4 -6 -11 -8 -16 -5 -5 4 -9 2 -9 -3 0 -5 8 -12 18 -14
12 -4 18 1 18 13 0 22 -2 23 -11 9z"/>
<path d="M7457 1604 c2 -7 11 -10 19 -7 19 7 18 10 -5 16 -13 3 -18 1 -14 -9z"/>
<path d="M7313 1592 c0 -10 7 -19 14 -19 9 0 10 4 3 12 -5 7 -7 15 -3 18 3 4
1 7 -5 7 -6 0 -10 -8 -9 -18z"/>
<path d="M7549 1583 c-13 -16 -12 -17 4 -4 9 7 17 15 17 17 0 8 -8 3 -21 -13z"/>
<path d="M7362 1578 c-7 -7 -12 -16 -12 -22 0 -5 3 -6 7 -3 3 4 11 2 18 -3 8
-7 12 -5 12 5 0 8 -5 11 -10 8 -6 -4 -8 0 -4 10 8 20 5 21 -11 5z"/>
<path d="M7507 1573 c4 -10 2 -14 -4 -10 -5 3 -10 0 -10 -8 0 -13 4 -12 19 2
22 19 22 19 4 26 -11 4 -13 1 -9 -10z"/>
<path d="M7419 1553 c-13 -15 -12 -15 7 -5 12 6 25 8 29 4 5 -4 5 -1 1 6 -10
16 -21 15 -37 -5z"/>
<path d="M7555 1560 c-3 -5 3 -7 12 -5 10 1 25 -2 33 -8 12 -9 13 -9 3 3 -15
16 -41 22 -48 10z"/>
<path d="M7320 1530 c-6 -11 -7 -20 -2 -20 6 0 12 9 15 20 3 11 3 20 1 20 -2
0 -8 -9 -14 -20z"/>
<path d="M7536 1527 c3 -10 9 -15 12 -12 3 3 0 11 -7 18 -10 9 -11 8 -5 -6z"/>
<path d="M7387 1511 c-3 -13 0 -18 7 -15 7 3 13 11 13 19 0 22 -14 18 -20 -4z"/>
<path d="M7467 1511 c-3 -13 0 -18 7 -15 7 3 13 11 13 19 0 22 -14 18 -20 -4z"/>
<path d="M7586 1522 c-3 -5 1 -9 9 -9 8 0 12 4 9 9 -3 4 -7 8 -9 8 -2 0 -6 -4
-9 -8z"/>
<path d="M7627 1519 c7 -7 15 -10 18 -7 3 3 -2 9 -12 12 -14 6 -15 5 -6 -5z"/>
<path d="M7535 1491 c-3 -6 -14 -8 -25 -6 -10 2 -25 -4 -32 -13 -11 -13 -11
-14 2 -7 19 12 31 13 50 4 11 -5 16 -2 16 12 0 21 -2 23 -11 10z"/>
<path d="M7344 1470 c0 -12 6 -15 20 -12 12 3 15 7 8 10 -7 2 -10 7 -8 11 3 4
0 8 -7 8 -7 0 -13 -8 -13 -17z"/>
<path d="M7397 1471 c-10 -12 -9 -13 3 -6 8 5 21 10 28 11 24 4 25 13 3 11
-12 -1 -28 -8 -34 -16z"/>
<path d="M7586 1461 c-3 -4 4 -7 14 -6 27 2 33 10 10 12 -11 1 -22 -2 -24 -6z"/>
<path d="M7513 1445 c0 -8 4 -12 9 -9 5 3 6 10 3 15 -9 13 -12 11 -12 -6z"/>
<path d="M7435 1439 c-3 -4 2 -6 10 -5 21 3 28 13 10 13 -9 0 -18 -4 -20 -8z"/>
<path d="M7460 1395 c-11 -13 -10 -14 5 -9 14 6 16 4 10 -6 -5 -8 -4 -11 3 -6
6 4 9 13 5 21 -7 19 -8 19 -23 0z"/>
<path d="M7347 1379 c7 -7 15 -10 18 -7 3 3 -2 9 -12 12 -14 6 -15 5 -6 -5z"/>
<path d="M7553 1373 c0 -9 4 -10 14 -2 7 6 13 12 13 14 0 1 -6 2 -13 2 -8 0
-14 -6 -14 -14z"/>
<path d="M7510 1359 c0 -5 5 -7 10 -4 6 3 10 8 10 11 0 2 -4 4 -10 4 -5 0 -10
-5 -10 -11z"/>
<path d="M7579 1353 c-13 -16 -12 -17 4 -4 16 13 21 21 13 21 -2 0 -10 -8 -17
-17z"/>
<path d="M7481 1333 c-5 -10 -13 -17 -18 -15 -4 2 -8 -1 -10 -7 -1 -7 0 -8 4
-1 2 5 9 8 13 5 5 -3 14 4 20 15 13 24 5 27 -9 3z"/>
<path d="M7545 1320 c-3 -6 1 -7 9 -4 18 7 21 14 7 14 -6 0 -13 -4 -16 -10z"/>
<path d="M7646 1302 c-3 -5 1 -9 9 -9 8 0 12 4 9 9 -3 4 -7 8 -9 8 -2 0 -6 -4
-9 -8z"/>
<path d="M7585 1260 c-3 -6 1 -7 9 -4 18 7 21 14 7 14 -6 0 -13 -4 -16 -10z"/>
<path d="M7646 1262 c-3 -5 1 -9 9 -9 8 0 12 4 9 9 -3 4 -7 8 -9 8 -2 0 -6 -4
-9 -8z"/>
<path d="M7530 1238 c0 -11 12 -10 30 2 12 7 10 9 -8 7 -12 0 -22 -5 -22 -9z"/>
<path d="M7580 1226 c0 -2 9 -6 20 -9 11 -3 18 -1 14 4 -5 9 -34 13 -34 5z"/>
<path d="M7370 1210 c-9 -6 -10 -10 -3 -10 6 0 15 5 18 10 8 12 4 12 -15 0z"/>
<path d="M7413 1197 c-4 -6 -1 -7 7 -2 10 6 12 4 7 -8 -4 -10 -2 -14 7 -11 7
3 13 11 13 18 0 15 -25 17 -34 3z"/>
<path d="M7513 1193 c4 -6 1 -14 -5 -16 -10 -4 -10 -6 0 -6 7 -1 10 -6 6 -13
-4 -6 -3 -8 4 -5 12 8 10 32 -3 44 -4 4 -5 3 -2 -4z"/>
<path d="M7190 1169 c0 -5 5 -7 10 -4 6 3 10 8 10 11 0 2 -4 4 -10 4 -5 0 -10
-5 -10 -11z"/>
<path d="M7614 1160 c0 -13 4 -16 10 -10 7 7 7 13 0 20 -6 6 -10 3 -10 -10z"/>
<path d="M7270 1159 c0 -5 5 -7 10 -4 6 3 10 8 10 11 0 2 -4 4 -10 4 -5 0 -10
-5 -10 -11z"/>
<path d="M7333 1155 c0 -8 7 -11 15 -7 10 3 13 1 8 -6 -3 -6 -1 -14 5 -18 7
-4 9 -3 5 4 -3 5 -1 12 5 14 6 2 0 9 -13 15 -19 9 -25 8 -25 -2z"/>
<path d="M7556 1154 c-8 -20 -8 -24 2 -24 4 0 8 9 9 20 2 24 -3 26 -11 4z"/>
<path d="M7146 1143 c-6 -14 -5 -15 5 -6 7 7 10 15 7 18 -3 3 -9 -2 -12 -12z"/>
<path d="M6790 1140 c0 -5 9 -8 20 -7 21 1 18 10 -5 13 -8 1 -15 -2 -15 -6z"/>
<path d="M7193 1143 c4 -3 1 -13 -6 -22 -11 -14 -10 -14 6 -2 20 15 22 31 5
31 -6 0 -8 -3 -5 -7z"/>
<path d="M7314 1128 c2 -15 0 -29 -5 -32 -5 -2 -4 -3 2 -2 15 3 20 29 8 47 -7
10 -8 6 -5 -13z"/>
<path d="M7467 1129 c6 -22 20 -26 20 -4 0 8 -6 16 -13 19 -7 3 -10 -2 -7 -15z"/>
<path d="M6976 1126 c3 -7 11 -13 19 -13 22 0 18 14 -4 20 -13 3 -18 0 -15 -7z"/>
<path d="M7050 1130 c-9 -6 -10 -10 -3 -10 6 0 15 5 18 10 8 12 4 12 -15 0z"/>
<path d="M7093 1117 c-4 -6 -1 -7 7 -2 10 6 12 4 6 -10 -5 -15 -4 -16 9 -5 8
7 15 16 15 20 0 10 -30 8 -37 -3z"/>
<path d="M6455 1110 c-4 -6 -11 -7 -17 -4 -7 4 -8 2 -4 -4 7 -12 36 -5 36 9 0
12 -7 11 -15 -1z"/>
<path d="M7552 1107 c-8 -10 -6 -13 7 -13 11 0 17 6 14 13 -3 7 -6 13 -8 13
-1 0 -7 -6 -13 -13z"/>
<path d="M6548 1091 c4 -10 1 -12 -8 -6 -8 5 -11 4 -6 -3 4 -6 13 -9 21 -6 8
4 13 10 10 14 -3 5 1 10 7 13 7 3 3 4 -8 4 -15 -1 -20 -6 -16 -16z"/>
<path d="M6673 1089 c-2 -23 3 -25 10 -4 4 8 3 16 -1 19 -4 3 -9 -4 -9 -15z"/>
<path d="M6950 1101 c0 -6 4 -12 8 -15 5 -3 9 1 9 9 0 8 -4 15 -9 15 -4 0 -8
-4 -8 -9z"/>
<path d="M7028 1092 c3 -9 1 -13 -5 -9 -5 3 -10 0 -10 -8 0 -17 14 -10 26 14
7 13 6 18 -4 18 -7 0 -11 -7 -7 -15z"/>
<path d="M7156 1102 c-6 -10 5 -26 20 -29 6 -1 11 4 11 12 0 7 -7 11 -15 7
-10 -3 -13 -1 -8 6 4 7 5 12 2 12 -3 0 -7 -4 -10 -8z"/>
<path d="M7600 1100 c-9 -6 -10 -10 -3 -10 6 0 15 5 18 10 8 12 4 12 -15 0z"/>
<path d="M7635 1101 c-3 -5 -2 -12 3 -15 5 -3 9 1 9 9 0 17 -3 19 -12 6z"/>
<path d="M7077 1093 c-10 -9 -9 -23 1 -23 5 0 9 7 9 15 0 17 -1 18 -10 8z"/>
<path d="M7503 1084 c9 -11 14 -23 11 -26 -3 -3 -1 -8 4 -12 18 -11 8 25 -12
41 -21 18 -21 18 -3 -3z"/>
<path d="M6333 1074 c0 -7 7 -10 15 -6 9 3 13 1 9 -5 -3 -5 0 -10 8 -10 10 0
12 4 5 12 -5 7 -8 14 -5 16 2 3 -4 5 -14 5 -10 0 -18 -6 -18 -12z"/>
<path d="M7130 1081 c0 -6 4 -13 10 -16 6 -3 7 1 4 9 -7 18 -14 21 -14 7z"/>
<path d="M7230 1083 c0 -6 8 -17 18 -24 16 -13 16 -13 2 6 -8 11 -16 22 -17
24 -2 2 -3 0 -3 -6z"/>
<path d="M6235 1071 c-3 -5 -2 -12 3 -15 5 -3 9 1 9 9 0 17 -3 19 -12 6z"/>
<path d="M6437 1073 c-10 -9 -9 -23 1 -23 5 0 9 7 9 15 0 17 -1 18 -10 8z"/>
<path d="M7470 1076 c0 -2 8 -10 18 -17 15 -13 16 -12 3 4 -13 16 -21 21 -21
13z"/>
<path d="M6205 1059 c-4 -6 -5 -12 -2 -15 2 -3 7 2 10 11 7 17 1 20 -8 4z"/>
<path d="M6915 1061 c3 -6 -3 -14 -12 -20 -10 -6 -13 -11 -7 -11 12 0 34 20
34 32 0 4 -5 8 -11 8 -5 0 -8 -4 -4 -9z"/>
<path d="M7279 1068 c-5 -18 -6 -39 -2 -34 4 3 13 0 22 -6 12 -10 12 -7 -2 8
-9 11 -14 24 -10 27 3 4 3 7 0 7 -4 0 -7 -1 -8 -2z"/>
<path d="M7317 1048 c19 -21 31 -25 14 -5 -6 8 -9 16 -6 19 3 2 -2 5 -10 5
-13 0 -13 -3 2 -19z"/>
<path d="M7349 1057 c6 -8 7 -18 3 -22 -4 -5 -1 -5 6 -1 10 6 10 11 1 22 -6 8
-14 14 -16 14 -3 0 0 -6 6 -13z"/>
<path d="M7540 1065 c0 -2 6 -8 13 -14 10 -8 14 -7 14 2 0 8 -6 14 -14 14 -7
0 -13 -1 -13 -2z"/>
<path d="M7587 1059 c7 -7 15 -10 18 -7 3 3 -2 9 -12 12 -14 6 -15 5 -6 -5z"/>
<path d="M5981 1038 c-12 -20 -12 -21 0 -12 8 6 22 10 32 9 9 -2 17 1 17 7 0
6 -6 8 -14 5 -8 -3 -16 -2 -18 4 -2 5 -9 -1 -17 -13z"/>
<path d="M6491 1051 c-19 -12 -22 -38 -5 -38 11 0 11 3 1 16 -10 12 -9 14 4 9
10 -4 16 -1 16 8 0 8 -1 14 -1 14 -1 0 -7 -4 -15 -9z"/>
<path d="M6622 1047 c12 -9 14 -17 7 -24 -6 -6 -5 -10 5 -10 20 0 13 27 -10
39 -17 9 -18 8 -2 -5z"/>
<path d="M6698 1048 c5 -5 16 -8 23 -6 8 3 3 7 -10 11 -17 4 -21 3 -13 -5z"/>
<path d="M6740 1052 c0 -6 5 -14 10 -17 6 -4 8 -10 6 -14 -3 -4 1 -8 9 -8 12
0 12 4 -2 21 -10 12 -19 23 -20 25 -2 2 -3 -1 -3 -7z"/>
<path d="M6806 1045 c-11 -8 -15 -15 -9 -15 6 0 16 7 23 15 16 19 11 19 -14 0z"/>
<path d="M6838 1036 c-13 -18 -14 -23 -2 -23 8 0 12 3 9 5 -3 3 0 11 7 19 6 7
9 15 7 17 -2 2 -12 -6 -21 -18z"/>
<path d="M6970 1050 c-9 -6 -10 -10 -3 -10 6 0 15 5 18 10 8 12 4 12 -15 0z"/>
<path d="M7113 1045 c0 -8 4 -15 9 -15 4 0 8 4 8 9 0 6 -4 12 -8 15 -5 3 -9
-1 -9 -9z"/>
<path d="M7171 1047 c-8 -10 -7 -14 2 -14 8 0 14 6 14 14 0 7 -1 13 -2 13 -2
0 -8 -6 -14 -13z"/>
<path d="M7213 1047 c0 -7 9 -14 20 -14 11 -1 18 -1 16 0 -2 2 -11 8 -20 15
-12 9 -16 9 -16 -1z"/>
<path d="M7453 1047 c0 -8 6 -14 14 -14 9 0 10 4 2 14 -6 7 -12 13 -14 13 -1
0 -2 -6 -2 -13z"/>
<path d="M6044 1039 c-4 -7 -3 -9 4 -5 5 3 13 0 15 -6 4 -9 6 -10 6 -1 1 17
-16 25 -25 12z"/>
<path d="M6116 1038 c3 -5 10 -6 15 -3 13 9 11 12 -6 12 -8 0 -12 -4 -9 -9z"/>
<path d="M6306 1042 c-3 -5 1 -9 9 -9 8 0 15 4 15 9 0 4 -4 8 -9 8 -6 0 -12
-4 -15 -8z"/>
<path d="M6993 1032 c-8 -14 -8 -19 1 -19 7 0 13 9 13 19 2 23 1 23 -14 0z"/>
<path d="M6432 1027 c-8 -10 -6 -13 11 -14 12 0 16 1 9 4 -6 3 -10 9 -6 14 8
14 -2 11 -14 -4z"/>
<path d="M6671 1027 c-8 -10 -7 -14 2 -14 8 0 14 6 14 14 0 7 -1 13 -2 13 -2
0 -8 -6 -14 -13z"/>
<path d="M5877 1013 c3 -7 6 -13 8 -13 2 0 5 6 8 13 3 8 -1 14 -8 14 -7 0 -11
-6 -8 -14z"/>
<path d="M6153 1011 c10 -12 9 -14 -4 -9 -9 3 -16 1 -16 -6 0 -6 8 -12 18 -12
10 0 16 2 14 5 -3 2 3 10 13 18 16 12 16 13 -2 6 -12 -4 -17 -3 -13 4 3 5 0
10 -8 10 -12 0 -12 -3 -2 -16z"/>
<path d="M6267 1009 c3 -10 13 -24 22 -31 14 -12 15 -11 2 4 -7 10 -11 24 -8
31 3 8 -1 14 -8 14 -7 0 -10 -8 -8 -18z"/>
<path d="M6387 1019 c7 -7 15 -10 18 -7 3 3 -2 9 -12 12 -14 6 -15 5 -6 -5z"/>
<path d="M6706 1022 c-2 -4 4 -8 14 -8 10 0 16 4 14 8 -3 4 -9 8 -14 8 -5 0
-11 -4 -14 -8z"/>
<path d="M7433 1015 c0 -8 4 -12 9 -9 5 3 6 10 3 15 -9 13 -12 11 -12 -6z"/>
<path d="M7480 1020 c-9 -6 -10 -10 -3 -10 6 0 15 5 18 10 8 12 4 12 -15 0z"/>
<path d="M7559 1028 c-6 -21 -5 -38 1 -38 5 0 8 9 7 20 -1 17 -5 26 -8 18z"/>
<path d="M5494 1006 c1 -8 5 -18 8 -22 4 -3 5 1 4 10 -1 8 -5 18 -8 22 -4 3
-5 -1 -4 -10z"/>
<path d="M5854 1006 c1 -8 5 -18 8 -22 4 -3 5 1 4 10 -1 8 -5 18 -8 22 -4 3
-5 -1 -4 -10z"/>
<path d="M6955 1011 c-3 -5 -2 -12 3 -15 5 -3 9 1 9 9 0 17 -3 19 -12 6z"/>
<path d="M7210 1016 c0 -2 8 -10 18 -17 15 -13 16 -12 3 4 -13 16 -21 21 -21
13z"/>
<path d="M5656 994 c-3 -9 -2 -12 5 -9 5 4 18 1 27 -6 13 -11 12 -8 -2 9 -23
26 -22 26 -30 6z"/>
<path d="M5896 993 c-6 -14 -5 -15 5 -6 7 7 10 15 7 18 -3 3 -9 -2 -12 -12z"/>
<path d="M5953 1003 c4 -3 1 -13 -6 -22 -10 -14 -10 -14 5 -3 10 8 23 10 30 6
10 -6 9 -3 -1 9 -7 9 -18 17 -24 17 -6 0 -7 -3 -4 -7z"/>
<path d="M6366 997 c3 -10 9 -15 12 -12 3 3 0 11 -7 18 -10 9 -11 8 -5 -6z"/>
<path d="M6524 998 c-3 -4 5 -5 17 -3 30 6 36 14 9 12 -12 -1 -24 -5 -26 -9z"/>
<path d="M6875 1001 c-3 -5 -2 -12 3 -15 5 -3 9 1 9 9 0 17 -3 19 -12 6z"/>
<path d="M6069 983 c-13 -16 -12 -17 4 -4 16 13 21 21 13 21 -2 0 -10 -8 -17
-17z"/>
<path d="M6186 983 c-6 -14 -5 -15 5 -6 7 7 10 15 7 18 -3 3 -9 -2 -12 -12z"/>
<path d="M5754 961 c1 -17 8 -37 16 -44 10 -10 11 -9 4 3 -5 8 -9 25 -10 38 0
12 -4 25 -7 28 -3 3 -5 -8 -3 -25z"/>
<path d="M6470 975 c5 -7 6 -16 2 -21 -4 -5 -3 -5 2 -1 15 12 15 34 0 34 -9 0
-11 -4 -4 -12z"/>
<path d="M6716 978 c3 -5 10 -6 15 -3 13 9 11 12 -6 12 -8 0 -12 -4 -9 -9z"/>
<path d="M7050 979 c0 -5 5 -7 10 -4 6 3 10 8 10 11 0 2 -4 4 -10 4 -5 0 -10
-5 -10 -11z"/>
<path d="M7095 980 c3 -5 8 -10 11 -10 2 0 4 5 4 10 0 6 -5 10 -11 10 -5 0 -7
-4 -4 -10z"/>
<path d="M7130 979 c0 -5 5 -7 10 -4 6 3 10 8 10 11 0 2 -4 4 -10 4 -5 0 -10
-5 -10 -11z"/>
<path d="M7170 979 c0 -5 5 -7 10 -4 6 3 10 8 10 11 0 2 -4 4 -10 4 -5 0 -10
-5 -10 -11z"/>
<path d="M7270 985 c0 -7 30 -13 34 -7 3 4 -4 9 -15 9 -10 1 -19 0 -19 -2z"/>
<path d="M5294 960 c0 -15 4 -16 18 -9 10 5 18 13 18 16 0 3 -3 3 -7 0 -3 -4
-11 -3 -17 3 -8 6 -12 3 -12 -10z"/>
<path d="M5380 971 c0 -6 4 -13 10 -16 6 -3 7 1 4 9 -7 18 -14 21 -14 7z"/>
<path d="M5533 965 c0 -8 3 -13 5 -10 3 3 10 0 17 -5 8 -7 12 -5 12 5 0 8 -3
13 -5 10 -3 -3 -10 0 -17 5 -8 7 -12 5 -12 -5z"/>
<path d="M5610 970 c-9 -6 -10 -10 -3 -10 6 0 15 5 18 10 8 12 4 12 -15 0z"/>
<path d="M5798 973 c7 -3 16 -2 19 1 4 3 -2 6 -13 5 -11 0 -14 -3 -6 -6z"/>
<path d="M6091 967 c-8 -10 -7 -14 2 -14 8 0 14 6 14 14 0 7 -1 13 -2 13 -2 0
-8 -6 -14 -13z"/>
<path d="M5637 952 c-15 -16 -15 -19 -2 -19 8 0 13 3 10 5 -3 3 0 11 6 19 17
20 5 16 -14 -5z"/>
<path d="M5673 963 c4 -3 1 -13 -6 -22 -11 -14 -10 -14 5 -2 16 12 16 31 1 31
-4 0 -3 -3 0 -7z"/>
<path d="M5870 959 c0 -5 5 -7 10 -4 6 3 10 8 10 11 0 2 -4 4 -10 4 -5 0 -10
-5 -10 -11z"/>
<path d="M5966 958 c3 -5 10 -6 15 -3 13 9 11 12 -6 12 -8 0 -12 -4 -9 -9z"/>
<path d="M6206 962 c-3 -5 1 -9 9 -9 8 0 12 4 9 9 -3 4 -7 8 -9 8 -2 0 -6 -4
-9 -8z"/>
<path d="M6380 966 c0 -2 8 -10 18 -17 15 -13 16 -12 3 4 -13 16 -21 21 -21
13z"/>
<path d="M6430 960 c0 -5 5 -10 11 -10 5 0 7 5 4 10 -3 6 -8 10 -11 10 -2 0
-4 -4 -4 -10z"/>
<path d="M6535 960 c3 -5 8 -10 11 -10 2 0 4 5 4 10 0 6 -5 10 -11 10 -5 0 -7
-4 -4 -10z"/>
<path d="M6667 959 c7 -7 15 -10 18 -7 3 3 -2 9 -12 12 -14 6 -15 5 -6 -5z"/>
<path d="M7235 961 c-3 -5 -2 -12 3 -15 5 -3 9 1 9 9 0 17 -3 19 -12 6z"/>
<path d="M5028 932 c4 -10 7 -12 10 -4 2 7 9 9 15 5 7 -3 8 -2 4 2 -14 16 -36
14 -29 -3z"/>
<path d="M5320 935 c-11 -13 -11 -18 0 -28 10 -9 11 -9 6 1 -4 7 -2 19 4 27 7
8 10 15 7 15 -2 0 -10 -7 -17 -15z"/>
<path d="M5350 946 c0 -2 7 -7 16 -10 8 -3 12 -2 9 4 -6 10 -25 14 -25 6z"/>
<path d="M5586 938 c3 -5 10 -6 15 -3 13 9 11 12 -6 12 -8 0 -12 -4 -9 -9z"/>
<path d="M5801 936 c-9 -11 -9 -16 1 -22 7 -4 10 -4 6 1 -4 4 -3 14 3 22 6 7
9 13 6 13 -2 0 -10 -6 -16 -14z"/>
<path d="M6160 940 c-9 -6 -10 -10 -3 -10 6 0 15 5 18 10 8 12 4 12 -15 0z"/>
<path d="M6610 946 c0 -2 7 -7 16 -10 8 -3 12 -2 9 4 -6 10 -25 14 -25 6z"/>
<path d="M6725 940 c-3 -6 1 -7 9 -4 18 7 21 14 7 14 -6 0 -13 -4 -16 -10z"/>
<path d="M5255 930 c-4 -6 -12 -7 -18 -4 -7 4 -9 4 -5 -1 4 -4 3 -13 -2 -20
-7 -8 -5 -12 5 -12 8 0 13 3 10 5 -3 3 2 14 12 24 9 10 13 18 10 18 -3 0 -9
-5 -12 -10z"/>
<path d="M5695 931 c-3 -5 -2 -12 3 -15 5 -3 9 1 9 9 0 17 -3 19 -12 6z"/>
<path d="M6233 925 c0 -8 4 -12 9 -9 5 3 6 10 3 15 -9 13 -12 11 -12 -6z"/>
<path d="M4730 921 c0 -6 4 -13 10 -16 6 -3 7 1 4 9 -7 18 -14 21 -14 7z"/>
<path d="M4850 926 c0 -2 7 -7 16 -10 8 -3 12 -2 9 4 -6 10 -25 14 -25 6z"/>
<path d="M5557 915 c-4 -8 -3 -16 1 -19 4 -3 9 4 9 15 2 23 -3 25 -10 4z"/>
<path d="M5930 919 c0 -5 5 -7 10 -4 6 3 10 8 10 11 0 2 -4 4 -10 4 -5 0 -10
-5 -10 -11z"/>
<path d="M4990 916 c0 -2 8 -10 18 -17 15 -13 16 -12 3 4 -13 16 -21 21 -21
13z"/>
<path d="M5733 905 c0 -8 4 -12 9 -9 5 3 6 10 3 15 -9 13 -12 11 -12 -6z"/>
<path d="M4785 899 c-3 -4 2 -6 10 -5 21 3 28 13 10 13 -9 0 -18 -4 -20 -8z"/>
<path d="M4835 902 c3 -3 -1 -12 -7 -21 -8 -10 -4 -9 10 3 26 23 26 23 7 23
-8 0 -13 -3 -10 -5z"/>
<path d="M5036 898 c3 -5 10 -6 15 -3 13 9 11 12 -6 12 -8 0 -12 -4 -9 -9z"/>
<path d="M5073 893 c0 -9 4 -10 14 -2 7 6 13 12 13 14 0 1 -6 2 -13 2 -8 0
-14 -6 -14 -14z"/>
<path d="M5114 894 c1 -8 4 -15 7 -16 2 -2 3 -1 2 1 -2 2 2 9 7 16 7 8 5 12
-4 12 -8 0 -13 -6 -12 -13z"/>
<path d="M5187 899 c7 -7 15 -10 18 -7 3 3 -2 9 -12 12 -14 6 -15 5 -6 -5z"/>
<path d="M4556 891 c-4 -5 -17 -8 -31 -6 -14 1 -27 -1 -30 -4 -2 -4 13 -7 34
-7 24 0 38 5 38 13 0 15 -4 16 -11 4z"/>
<path d="M4646 881 c-14 -15 -15 -24 -7 -38 10 -16 10 -15 8 7 -1 14 3 24 9
23 6 -1 11 5 11 13 0 18 0 18 -21 -5z"/>
<path d="M4985 880 c10 -11 20 -20 23 -20 3 0 -3 9 -13 20 -10 11 -20 20 -23
20 -3 0 3 -9 13 -20z"/>
<path d="M5790 896 c0 -2 8 -10 18 -17 15 -13 16 -12 3 4 -13 16 -21 21 -21
13z"/>
<path d="M6555 891 c-3 -5 -2 -12 3 -15 5 -3 9 1 9 9 0 17 -3 19 -12 6z"/>
<path d="M4856 873 c-6 -14 -5 -15 5 -6 7 7 10 15 7 18 -3 3 -9 -2 -12 -12z"/>
<path d="M4886 878 c3 -5 9 -7 12 -4 3 3 12 0 21 -6 13 -10 14 -10 4 2 -15 16
-46 23 -37 8z"/>
<path d="M5155 880 c-3 -5 -1 -10 4 -10 6 0 11 5 11 10 0 6 -2 10 -4 10 -3 0
-8 -4 -11 -10z"/>
<path d="M5370 879 c0 -5 5 -7 10 -4 6 3 10 8 10 11 0 2 -4 4 -10 4 -5 0 -10
-5 -10 -11z"/>
<path d="M6016 873 c-6 -14 -5 -15 5 -6 7 7 10 15 7 18 -3 3 -9 -2 -12 -12z"/>
<path d="M4227 866 c-4 -10 -1 -13 8 -9 8 3 12 9 9 14 -7 12 -11 11 -17 -5z"/>
<path d="M4267 866 c-4 -10 -1 -13 8 -9 8 3 12 9 9 14 -7 12 -11 11 -17 -5z"/>
<path d="M4307 867 c-3 -7 3 -13 14 -13 13 0 15 3 7 13 -6 7 -12 13 -13 13 -2
0 -5 -6 -8 -13z"/>
<path d="M5429 863 c-13 -16 -12 -17 4 -4 16 13 21 21 13 21 -2 0 -10 -8 -17
-17z"/>
<path d="M4420 866 c0 -2 8 -10 18 -17 15 -13 16 -12 3 4 -13 16 -21 21 -21
13z"/>
<path d="M5295 860 c3 -5 8 -10 11 -10 2 0 4 5 4 10 0 6 -5 10 -11 10 -5 0 -7
-4 -4 -10z"/>
<path d="M4535 851 c-3 -5 -2 -12 3 -15 5 -3 9 1 9 9 0 17 -3 19 -12 6z"/>
<path d="M4789 843 c-13 -16 -12 -17 4 -4 16 13 21 21 13 21 -2 0 -10 -8 -17
-17z"/>
<path d="M3916 838 c3 -5 10 -6 15 -3 13 9 11 12 -6 12 -8 0 -12 -4 -9 -9z"/>
<path d="M4879 833 c-13 -16 -12 -17 4 -4 9 7 17 15 17 17 0 8 -8 3 -21 -13z"/>
<path d="M5199 833 c-13 -16 -12 -17 4 -4 9 7 17 15 17 17 0 8 -8 3 -21 -13z"/>
<path d="M4733 815 c0 -8 4 -12 9 -9 5 3 6 10 3 15 -9 13 -12 11 -12 -6z"/>
<path d="M3556 793 c-6 -14 -5 -15 5 -6 7 7 10 15 7 18 -3 3 -9 -2 -12 -12z"/>
<path d="M3736 802 c-3 -5 1 -9 9 -9 8 0 12 4 9 9 -3 4 -7 8 -9 8 -2 0 -6 -4
-9 -8z"/>
<path d="M3829 797 c6 -8 7 -18 3 -22 -4 -5 -1 -5 6 -1 10 6 10 11 1 22 -6 8
-14 14 -16 14 -3 0 0 -6 6 -13z"/>
<path d="M4106 798 c3 -5 10 -6 15 -3 13 9 11 12 -6 12 -8 0 -12 -4 -9 -9z"/>
<path d="M5025 799 c-3 -4 2 -6 10 -5 21 3 28 13 10 13 -9 0 -18 -4 -20 -8z"/>
<path d="M3627 779 c7 -7 15 -10 18 -7 3 3 -2 9 -12 12 -14 6 -15 5 -6 -5z"/>
<path d="M3302 760 c-9 -15 -9 -21 1 -26 6 -4 9 -4 5 1 -4 4 -3 14 4 22 6 7 9
15 7 18 -3 2 -10 -4 -17 -15z"/>
<path d="M3417 773 c-10 -9 -9 -23 1 -23 5 0 9 7 9 15 0 17 -1 18 -10 8z"/>
<path d="M3155 760 c-3 -5 -1 -10 4 -10 6 0 11 5 11 10 0 6 -2 10 -4 10 -3 0
-8 -4 -11 -10z"/>
<path d="M4100 766 c0 -2 8 -10 18 -17 15 -13 16 -12 3 4 -13 16 -21 21 -21
13z"/>
<path d="M3536 741 c-3 -5 2 -15 12 -22 15 -12 16 -12 5 2 -7 9 -10 19 -6 22
3 4 4 7 0 7 -3 0 -8 -4 -11 -9z"/>
<path d="M2353 655 c0 -8 4 -12 9 -9 5 3 6 10 3 15 -9 13 -12 11 -12 -6z"/>
<path d="M2116 642 c-3 -5 1 -9 9 -9 8 0 12 4 9 9 -3 4 -7 8 -9 8 -2 0 -6 -4
-9 -8z"/>
</g>
</svg>
